<svg width="86" height="86" viewBox="0 0 86 86" fill="none" xmlns="http://www.w3.org/2000/svg">
<g filter="url(#filter0_d_164_200)">
<g clip-path="url(#clip0_164_200)">
<rect x="1" y="12.9114" width="72" height="72" rx="6.85762" transform="rotate(-9.52253 1 12.9114)" fill="white"/>
<g clip-path="url(#clip1_164_200)">
<path d="M59.5433 52.6832C44.1147 63.4757 32.5888 58.5448 25.2473 55.607C24.7923 55.4206 24.1446 55.8534 24.8696 56.4497C27.5401 58.7682 35.9007 64.0338 45.3937 62.4414C54.8932 60.8479 59.6751 54.7165 60.2303 53.6937C60.7821 52.6794 60.2031 52.268 59.5432 52.6833L59.5433 52.6832ZM63.8161 49.2927C63.2675 48.7819 60.9615 49.0563 59.5514 49.4747C58.1383 49.8883 56.1218 51.1327 56.3987 51.6303C56.5285 51.8123 56.7107 51.6903 57.6863 51.4351C58.663 51.1693 61.3866 50.3514 62.0936 51.0121C62.8041 51.6776 61.944 55.5598 61.7739 56.1912C61.6128 56.821 61.9967 56.9121 62.4184 56.4398C62.8335 55.9689 63.5338 54.812 63.8776 53.2834C64.2162 51.7477 64.2333 49.6817 63.8161 49.2927Z" fill="#FF9900"/>
<path fill-rule="evenodd" clip-rule="evenodd" d="M45.5378 38.2917C45.889 40.3855 46.2348 42.1227 45.4884 44.1597C44.8879 45.8149 43.6908 46.9715 42.179 47.2251C40.1154 47.5713 38.6498 46.2006 38.2605 43.8801C37.4921 39.2993 41.457 37.7794 45.3425 37.1277L45.5378 38.2917ZM53.1549 50.4822C52.8528 50.8592 52.3426 50.9682 51.9065 50.8236C49.8741 49.6414 49.4412 49.0068 48.2215 47.7581C45.7782 51.2611 43.8428 52.5105 40.018 53.1521C35.4978 53.9103 31.5074 51.712 30.5704 46.126C29.8388 41.7646 31.7065 38.3969 34.8266 36.3815C37.5288 34.6069 41.565 33.6967 44.6198 32.8192L44.5031 32.1237C44.2888 30.8462 44.1334 29.318 43.2 28.3399C42.3762 27.46 41.053 27.2623 39.9493 27.4474C37.9009 27.791 36.2479 29.1485 36.1671 31.4003C36.1574 31.8994 35.8822 32.4352 35.4022 32.539L30.0927 32.8547C29.6379 32.8297 29.0946 32.5557 29.1026 31.8626C29.2445 25.3419 34.6317 22.4796 39.7415 21.6225C42.3569 21.1838 45.8901 21.3061 48.286 22.9404C51.3109 24.9431 51.6079 28.2429 52.2026 31.788L53.6075 40.1632C54.0298 42.6804 55.258 43.6089 56.4689 44.8048C56.8977 45.2302 57.071 45.7997 56.6934 46.2359C55.7508 47.3343 54.0859 49.3623 53.1724 50.4948L53.1547 50.4822" fill="black"/>
<path d="M59.5433 52.6832C44.1147 63.4757 32.5888 58.5448 25.2473 55.607C24.7923 55.4206 24.1446 55.8534 24.8696 56.4497C27.5401 58.7682 35.9007 64.0338 45.3937 62.4414C54.8932 60.8479 59.6751 54.7165 60.2303 53.6937C60.7821 52.6794 60.2031 52.268 59.5432 52.6833L59.5433 52.6832ZM63.8161 49.2927C63.2675 48.7819 60.9615 49.0563 59.5514 49.4747C58.1383 49.8883 56.1218 51.1327 56.3987 51.6303C56.5285 51.8123 56.7107 51.6903 57.6863 51.4351C58.663 51.1693 61.3866 50.3514 62.0936 51.0121C62.8041 51.6776 61.944 55.5598 61.7739 56.1912C61.6128 56.821 61.9967 56.9121 62.4184 56.4398C62.8335 55.9689 63.5338 54.812 63.8776 53.2834C64.2162 51.7477 64.2333 49.6817 63.8161 49.2927Z" fill="#FF9900"/>
<path fill-rule="evenodd" clip-rule="evenodd" d="M45.5378 38.2917C45.889 40.3855 46.2348 42.1227 45.4884 44.1597C44.8879 45.8149 43.6908 46.9715 42.179 47.2251C40.1154 47.5713 38.6498 46.2006 38.2605 43.8801C37.4921 39.2993 41.457 37.7794 45.3425 37.1277L45.5378 38.2917ZM53.1549 50.4822C52.8528 50.8592 52.3426 50.9682 51.9065 50.8236C49.8741 49.6414 49.4412 49.0068 48.2215 47.7581C45.7782 51.2611 43.8428 52.5105 40.018 53.1521C35.4978 53.9103 31.5074 51.712 30.5704 46.126C29.8388 41.7646 31.7065 38.3969 34.8266 36.3815C37.5288 34.6069 41.565 33.6967 44.6198 32.8192L44.5031 32.1237C44.2888 30.8462 44.1334 29.318 43.2 28.3399C42.3762 27.46 41.053 27.2623 39.9493 27.4474C37.9009 27.791 36.2479 29.1485 36.1671 31.4003C36.1574 31.8994 35.8822 32.4352 35.4022 32.539L30.0927 32.8547C29.6379 32.8297 29.0946 32.5557 29.1026 31.8626C29.2445 25.3419 34.6317 22.4796 39.7415 21.6225C42.3569 21.1838 45.8901 21.3061 48.286 22.9404C51.3109 24.9431 51.6079 28.2429 52.2026 31.788L53.6075 40.1632C54.0298 42.6804 55.258 43.6089 56.4689 44.8048C56.8977 45.2302 57.071 45.7997 56.6934 46.2359C55.7508 47.3343 54.0859 49.3623 53.1724 50.4948L53.1547 50.4822" fill="black"/>
</g>
</g>
<rect x="1.16453" y="13.0286" width="71.7143" height="71.7143" rx="6.71475" transform="rotate(-9.52253 1.16453 13.0286)" stroke="url(#paint0_linear_164_200)" stroke-opacity="0.2" stroke-width="0.285734"/>
</g>
<defs>
<filter id="filter0_d_164_200" x="-1" y="0" width="86.9192" height="86.9193" filterUnits="userSpaceOnUse" color-interpolation-filters="sRGB">
<feFlood flood-opacity="0" result="BackgroundImageFix"/>
<feColorMatrix in="SourceAlpha" type="matrix" values="0 0 0 0 0 0 0 0 0 0 0 0 0 0 0 0 0 0 127 0" result="hardAlpha"/>
<feOffset dy="1"/>
<feGaussianBlur stdDeviation="1"/>
<feComposite in2="hardAlpha" operator="out"/>
<feColorMatrix type="matrix" values="0 0 0 0 0 0 0 0 0 0 0 0 0 0 0 0 0 0 0.25 0"/>
<feBlend mode="normal" in2="BackgroundImageFix" result="effect1_dropShadow_164_200"/>
<feBlend mode="normal" in="SourceGraphic" in2="effect1_dropShadow_164_200" result="shape"/>
</filter>
<linearGradient id="paint0_linear_164_200" x1="1.2689" y1="15.8442" x2="47.2737" y2="95.7382" gradientUnits="userSpaceOnUse">
<stop stop-color="#1C1C1C" stop-opacity="0.45"/>
<stop offset="1" stop-color="#828282"/>
</linearGradient>
<clipPath id="clip0_164_200">
<rect x="1" y="12.9114" width="72" height="72" rx="6.85762" transform="rotate(-9.52253 1 12.9114)" fill="white"/>
</clipPath>
<clipPath id="clip1_164_200">
<rect width="42" height="42" fill="white" transform="translate(18.275 25.2234) rotate(-9.52253)"/>
</clipPath>
</defs>
</svg>
