<svg width="293" height="280" viewBox="0 0 293 280" fill="none" xmlns="http://www.w3.org/2000/svg">
<g filter="url(#filter0_d_204_14351)">
<g filter="url(#filter1_d_204_14351)">
<g clip-path="url(#clip0_204_14351)">
<path d="M17 31C17 21.0589 25.0589 13 35 13H258C267.941 13 276 21.0589 276 31V240.844C276 250.786 267.941 258.844 258 258.844H35C25.0589 258.844 17 250.786 17 240.844V31Z" fill="#F4F6F7"/>
<path d="M57.1584 31.8324C58.5801 31.8324 59.7318 32.3229 60.6134 33.3039C61.5012 34.2848 61.9452 35.3961 61.9452 36.6379C61.9452 37.8982 61.495 39.0157 60.5948 39.9905C59.7008 40.9652 58.5118 41.4526 57.028 41.4526H53.8616V45.187H50.7325V31.8324H57.1584ZM56.9535 38.6215C57.5123 38.6215 57.9717 38.4259 58.3318 38.0348C58.6919 37.6436 58.8719 37.1873 58.8719 36.6658C58.8719 36.1443 58.7012 35.6879 58.3597 35.2968C58.0183 34.8995 57.593 34.7008 57.0839 34.7008H53.8616V38.6215H56.9535ZM65.8662 36.7775C66.158 36.2436 66.5647 35.8463 67.0862 35.5855C67.6077 35.3247 68.2161 35.2378 68.9115 35.3247V38.1838C67.8685 38.0037 67.0986 38.1496 66.6019 38.6215C66.1115 39.0933 65.8662 39.9284 65.8662 41.1266V45.187H62.8116V35.4644H65.8662V36.7775ZM77.9826 43.9857C76.9954 44.9666 75.7444 45.4571 74.2295 45.4571C72.7208 45.4571 71.4729 44.9666 70.4857 43.9857C69.4986 43.0047 69.005 41.7847 69.005 40.3257C69.005 38.8605 69.4986 37.6405 70.4857 36.6658C71.4729 35.6848 72.7208 35.1944 74.2295 35.1944C75.7444 35.1944 76.9954 35.6848 77.9826 36.6658C78.9697 37.6405 79.4633 38.8605 79.4633 40.3257C79.4633 41.7847 78.9697 43.0047 77.9826 43.9857ZM72.5811 42.0393C72.9971 42.4863 73.5466 42.7098 74.2295 42.7098C74.9186 42.7098 75.4681 42.4863 75.8779 42.0393C76.2938 41.5923 76.5018 41.0211 76.5018 40.3257C76.5018 39.6242 76.2938 39.053 75.8779 38.6122C75.4681 38.1652 74.9186 37.9416 74.2295 37.9416C73.5466 37.9416 72.9971 38.1652 72.5811 38.6122C72.1714 39.053 71.9665 39.6242 71.9665 40.3257C71.9665 41.0211 72.1714 41.5923 72.5811 42.0393ZM92.5668 35.1944C93.7464 35.1944 94.687 35.5638 95.3886 36.3026C96.0901 37.0352 96.4409 38.0844 96.4409 39.4503V45.187H93.3956V40.1302C93.3956 38.7208 92.8803 38.0162 91.8497 38.0162C90.7197 38.0162 90.1517 38.7984 90.1454 40.363V45.187H87.1002V40.1302C87.1002 38.7208 86.5849 38.0162 85.5542 38.0162C84.4243 38.0162 83.8593 38.7984 83.8593 40.363V45.187H80.8047V35.4644H83.8593V36.4143C84.5609 35.601 85.4549 35.1944 86.5414 35.1944C87.8266 35.1944 88.7672 35.6259 89.3632 36.4889C90.1765 35.6259 91.2444 35.1944 92.5668 35.1944ZM106.648 43.9857C105.661 44.9666 104.41 45.4571 102.895 45.4571C101.386 45.4571 100.138 44.9666 99.1513 43.9857C98.1641 43.0047 97.6706 41.7847 97.6706 40.3257C97.6706 38.8605 98.1641 37.6405 99.1513 36.6658C100.138 35.6848 101.386 35.1944 102.895 35.1944C104.41 35.1944 105.661 35.6848 106.648 36.6658C107.635 37.6405 108.129 38.8605 108.129 40.3257C108.129 41.7847 107.635 43.0047 106.648 43.9857ZM101.247 42.0393C101.663 42.4863 102.212 42.7098 102.895 42.7098C103.584 42.7098 104.134 42.4863 104.543 42.0393C104.959 41.5923 105.167 41.0211 105.167 40.3257C105.167 39.6242 104.959 39.053 104.543 38.6122C104.134 38.1652 103.584 37.9416 102.895 37.9416C102.212 37.9416 101.663 38.1652 101.247 38.6122C100.837 39.053 100.632 39.6242 100.632 40.3257C100.632 41.0211 100.837 41.5923 101.247 42.0393ZM114.816 42.4397L115.542 44.8611C114.741 45.1777 113.947 45.336 113.158 45.336C112.016 45.336 111.156 45.0132 110.578 44.3675C110.007 43.7156 109.722 42.8185 109.722 41.6761V38.1279H108.213V35.4644H109.722V32.4098H112.776V35.4644H115.393V38.1279H112.776V41.6761C112.776 42.3528 113.112 42.6912 113.782 42.6912C114.155 42.6912 114.499 42.6074 114.816 42.4397ZM119.426 33.8347C119.085 34.17 118.672 34.3376 118.187 34.3376C117.709 34.3376 117.297 34.17 116.949 33.8347C116.607 33.4932 116.437 33.0804 116.437 32.5961C116.437 32.1242 116.607 31.7238 116.949 31.3947C117.297 31.0657 117.709 30.9012 118.187 30.9012C118.672 30.9012 119.085 31.0688 119.426 31.4041C119.774 31.7331 119.948 32.1305 119.948 32.5961C119.948 33.0804 119.774 33.4932 119.426 33.8347ZM116.632 45.187V35.4644H119.677V45.187H116.632ZM130.015 43.9857C129.028 44.9666 127.777 45.4571 126.262 45.4571C124.753 45.4571 123.505 44.9666 122.518 43.9857C121.531 43.0047 121.038 41.7847 121.038 40.3257C121.038 38.8605 121.531 37.6405 122.518 36.6658C123.505 35.6848 124.753 35.1944 126.262 35.1944C127.777 35.1944 129.028 35.6848 130.015 36.6658C131.002 37.6405 131.496 38.8605 131.496 40.3257C131.496 41.7847 131.002 43.0047 130.015 43.9857ZM124.614 42.0393C125.03 42.4863 125.579 42.7098 126.262 42.7098C126.951 42.7098 127.501 42.4863 127.91 42.0393C128.326 41.5923 128.534 41.0211 128.534 40.3257C128.534 39.6242 128.326 39.053 127.91 38.6122C127.501 38.1652 126.951 37.9416 126.262 37.9416C125.579 37.9416 125.03 38.1652 124.614 38.6122C124.204 39.053 123.999 39.6242 123.999 40.3257C123.999 41.0211 124.204 41.5923 124.614 42.0393ZM138.769 35.1944C140.03 35.1944 140.977 35.5824 141.61 36.3585C142.243 37.1345 142.56 38.19 142.56 39.5248V45.187H139.514V40.1302C139.514 38.7208 138.934 38.0162 137.773 38.0162C137.189 38.0162 136.73 38.2334 136.395 38.668C136.059 39.0964 135.892 39.6862 135.892 40.4375V45.187H132.837V35.4644H135.892V36.4702C136.631 35.6197 137.59 35.1944 138.769 35.1944ZM148.325 45.4571C147.127 45.4571 146.08 45.1622 145.186 44.5724C144.292 43.9763 143.718 43.2655 143.464 42.4397L146.183 41.6388C146.35 42.061 146.63 42.4025 147.021 42.6632C147.418 42.924 147.89 43.0544 148.437 43.0544C148.803 43.0544 149.098 42.9861 149.321 42.8495C149.545 42.7067 149.657 42.5391 149.657 42.3466C149.657 42.03 149.352 41.7816 148.744 41.6016L146.416 40.9124C144.777 40.4158 143.957 39.5124 143.957 38.2024C143.957 37.3518 144.354 36.6379 145.149 36.0605C145.944 35.4831 146.894 35.1944 147.999 35.1944C149.042 35.1944 149.958 35.4179 150.746 35.8649C151.535 36.3057 152.087 36.9079 152.404 37.6716L149.731 38.4352C149.296 37.8268 148.713 37.5226 147.98 37.5226C147.701 37.5226 147.459 37.5816 147.254 37.6995C147.049 37.8113 146.946 37.9541 146.946 38.1279C146.946 38.3825 147.133 38.5749 147.505 38.7053L149.75 39.3293C150.197 39.4534 150.569 39.5807 150.867 39.7111C151.165 39.8415 151.463 40.0153 151.761 40.2326C152.065 40.4437 152.289 40.7169 152.432 41.0521C152.581 41.3812 152.655 41.7692 152.655 42.2162C152.655 43.1599 152.252 43.936 151.445 44.5444C150.637 45.1529 149.598 45.4571 148.325 45.4571ZM164.735 45.4571C162.711 45.4571 161.028 44.7959 159.687 43.4735C158.352 42.151 157.685 40.4965 157.685 38.5097C157.685 36.5416 158.352 34.8933 159.687 33.5646C161.022 32.236 162.686 31.5717 164.679 31.5717C166.448 31.5717 167.907 32.0249 169.056 32.9314C170.211 33.8316 170.934 34.8715 171.226 36.0511L168.134 36.8148C167.954 36.2064 167.553 35.6755 166.933 35.2223C166.312 34.7691 165.567 34.5425 164.697 34.5425C163.567 34.5425 162.655 34.9243 161.959 35.6879C161.27 36.4516 160.926 37.386 160.926 38.4911C160.926 39.5838 161.273 40.5213 161.969 41.3036C162.67 42.0858 163.58 42.477 164.697 42.477C165.573 42.477 166.318 42.2597 166.933 41.8251C167.553 41.3843 167.954 40.8597 168.134 40.2512L171.226 41.0335C170.934 42.2007 170.214 43.2313 169.065 44.1254C167.923 45.0132 166.479 45.4571 164.735 45.4571ZM176.572 45.4571C175.249 45.4571 174.129 44.9666 173.21 43.9857C172.297 43.0047 171.841 41.7847 171.841 40.3257C171.841 38.8605 172.297 37.6405 173.21 36.6658C174.129 35.6848 175.249 35.1944 176.572 35.1944C177.726 35.1944 178.661 35.5824 179.375 36.3585V35.4644H182.429V45.187H179.375V44.293C178.636 45.069 177.702 45.4571 176.572 45.4571ZM177.13 42.7471C177.807 42.7471 178.363 42.5204 178.797 42.0672C179.238 41.614 179.459 41.0273 179.459 40.3071C179.459 39.5931 179.238 39.0157 178.797 38.5749C178.357 38.1279 177.801 37.9044 177.13 37.9044C176.472 37.9044 175.929 38.1279 175.501 38.5749C175.072 39.0157 174.858 39.5931 174.858 40.3071C174.858 41.0335 175.072 41.6233 175.501 42.0765C175.929 42.5235 176.472 42.7471 177.13 42.7471ZM184.33 45.187V31.2644H187.384V45.187H184.33ZM194.062 45.4571C192.472 45.4571 191.184 44.9852 190.197 44.0415C189.21 43.0916 188.716 41.8592 188.716 40.3444C188.716 38.8543 189.191 37.625 190.141 36.6565C191.091 35.6817 192.333 35.1944 193.866 35.1944C195.431 35.1944 196.669 35.6724 197.582 36.6285C198.501 37.5784 198.96 38.7798 198.96 40.2326C198.96 40.6113 198.936 40.9466 198.886 41.2384H191.696C191.926 42.3559 192.733 42.9147 194.118 42.9147C195.049 42.9147 195.698 42.5856 196.064 41.9275L198.811 42.7284C198.507 43.43 197.933 44.0602 197.089 44.6189C196.25 45.1777 195.241 45.4571 194.062 45.4571ZM191.696 39.4038H195.99C195.94 38.9443 195.72 38.5532 195.328 38.2303C194.943 37.9075 194.45 37.7461 193.848 37.7461C193.252 37.7461 192.761 37.9106 192.376 38.2397C191.998 38.5687 191.771 38.9567 191.696 39.4038ZM206.225 35.1944C207.485 35.1944 208.432 35.5824 209.065 36.3585C209.698 37.1345 210.015 38.19 210.015 39.5248V45.187H206.97V40.1302C206.97 38.7208 206.389 38.0162 205.228 38.0162C204.645 38.0162 204.185 38.2334 203.85 38.668C203.515 39.0964 203.347 39.6862 203.347 40.4375V45.187H200.292V35.4644H203.347V36.4702C204.086 35.6197 205.045 35.1944 206.225 35.1944ZM218.788 31.2644H221.843V45.187H218.788V44.293C218.049 45.069 217.115 45.4571 215.985 45.4571C214.663 45.4571 213.542 44.9666 212.623 43.9857C211.71 43.0047 211.254 41.7847 211.254 40.3257C211.254 38.8605 211.71 37.6405 212.623 36.6658C213.542 35.6848 214.663 35.1944 215.985 35.1944C217.14 35.1944 218.074 35.5824 218.788 36.3585V31.2644ZM216.544 42.7471C217.22 42.7471 217.776 42.5204 218.211 42.0672C218.651 41.614 218.872 41.0273 218.872 40.3071C218.872 39.5931 218.651 39.0157 218.211 38.5749C217.77 38.1279 217.214 37.9044 216.544 37.9044C215.886 37.9044 215.342 38.1279 214.914 38.5749C214.486 39.0157 214.271 39.5931 214.271 40.3071C214.271 41.0335 214.486 41.6233 214.914 42.0765C215.342 42.5235 215.886 42.7471 216.544 42.7471ZM227.896 45.4571C226.574 45.4571 225.453 44.9666 224.534 43.9857C223.622 43.0047 223.165 41.7847 223.165 40.3257C223.165 38.8605 223.622 37.6405 224.534 36.6658C225.453 35.6848 226.574 35.1944 227.896 35.1944C229.051 35.1944 229.986 35.5824 230.7 36.3585V35.4644H233.754V45.187H230.7V44.293C229.961 45.069 229.026 45.4571 227.896 45.4571ZM228.455 42.7471C229.132 42.7471 229.688 42.5204 230.122 42.0672C230.563 41.614 230.783 41.0273 230.783 40.3071C230.783 39.5931 230.563 39.0157 230.122 38.5749C229.681 38.1279 229.126 37.9044 228.455 37.9044C227.797 37.9044 227.254 38.1279 226.825 38.5749C226.397 39.0157 226.183 39.5931 226.183 40.3071C226.183 41.0335 226.397 41.6233 226.825 42.0765C227.254 42.5235 227.797 42.7471 228.455 42.7471ZM238.709 36.7775C239.001 36.2436 239.407 35.8463 239.929 35.5855C240.45 35.3247 241.059 35.2378 241.754 35.3247V38.1838C240.711 38.0037 239.941 38.1496 239.445 38.6215C238.954 39.0933 238.709 39.9284 238.709 41.1266V45.187H235.654V35.4644H238.709V36.7775Z" fill="#B7B7B7"/>
<line x1="35.0889" y1="60.3601" x2="252.156" y2="60.3601" stroke="#E4E5E7" stroke-width="0.657778"/>
<path d="M41.6683 81.8445V76.5905H42.9633L44.4137 80.6605L45.8641 76.5905H47.1591V81.8445H46.1971V78.2185L44.8725 81.8371H43.9549L42.6303 78.2185V81.8445H41.6683ZM50.4575 81.9629C49.9395 81.9629 49.493 81.8543 49.1181 81.6373C48.7431 81.4153 48.4545 81.0995 48.2523 80.6901C48.0549 80.2806 47.9563 79.7922 47.9563 79.2249C47.9563 78.6575 48.0549 78.1691 48.2523 77.7597C48.4545 77.3453 48.7431 77.0271 49.1181 76.8051C49.493 76.5831 49.9395 76.4721 50.4575 76.4721C50.9853 76.4721 51.4343 76.5831 51.8043 76.8051C52.1792 77.0271 52.4653 77.3453 52.6627 77.7597C52.8649 78.1691 52.9661 78.6575 52.9661 79.2249C52.9661 79.7922 52.8649 80.2806 52.6627 80.6901C52.4653 81.0995 52.1792 81.4153 51.8043 81.6373C51.4343 81.8543 50.9853 81.9629 50.4575 81.9629ZM50.4575 81.1267C50.7781 81.1267 51.0495 81.0527 51.2715 80.9047C51.4984 80.7517 51.6711 80.5347 51.7895 80.2535C51.9128 79.9673 51.9745 79.6245 51.9745 79.2249C51.9745 78.8253 51.9128 78.4824 51.7895 78.1963C51.6711 77.9101 51.4984 77.6906 51.2715 77.5377C51.0495 77.3847 50.7781 77.3083 50.4575 77.3083C50.1467 77.3083 49.8778 77.3847 49.6509 77.5377C49.4239 77.6906 49.2488 77.9101 49.1255 78.1963C49.0071 78.4824 48.9479 78.8253 48.9479 79.2249C48.9479 79.6245 49.0071 79.9673 49.1255 80.2535C49.2488 80.5347 49.4239 80.7517 49.6509 80.9047C49.8778 81.0527 50.1467 81.1267 50.4575 81.1267ZM53.7584 81.8445V76.5905H54.8832L57.1476 80.5421V76.5905H58.1096V81.8445H56.9552L54.7204 78.0039V81.8445H53.7584Z" fill="black"/>
<path d="M76.5574 81.8445V77.4267H74.959V76.5905H79.1104V77.4267H77.5194V81.8445H76.5574ZM81.7817 81.9629C81.3574 81.9629 80.985 81.8815 80.6643 81.7187C80.3486 81.5559 80.1044 81.3265 79.9317 81.0305C79.764 80.7295 79.6801 80.3743 79.6801 79.9649V76.5831H80.6421V79.9649C80.6421 80.3349 80.7408 80.621 80.9381 80.8233C81.1354 81.0255 81.4166 81.1267 81.7817 81.1267C82.1468 81.1267 82.428 81.0255 82.6253 80.8233C82.8276 80.621 82.9287 80.3349 82.9287 79.9649V76.5831H83.8907V79.9649C83.8907 80.3743 83.8044 80.7295 83.6317 81.0305C83.459 81.3265 83.2148 81.5559 82.8991 81.7187C82.5883 81.8815 82.2158 81.9629 81.7817 81.9629ZM85.0737 81.8445V76.5905H88.6109V77.4267H86.0357V78.7957H88.5221V79.6245H86.0357V81.0083H88.6701V81.8445H85.0737Z" fill="black"/>
<path d="M107.236 81.8445L105.83 76.5905H106.844L107.806 80.5125L108.776 76.5905H109.671L110.64 80.5125L111.595 76.5905H112.616L111.21 81.8445H110.145L109.227 78.2481L108.309 81.8445H107.236ZM113.296 81.8445V76.5905H116.833V77.4267H114.258V78.7957H116.744V79.6245H114.258V81.0083H116.892V81.8445H113.296ZM117.812 81.8445V76.5905H119.559C120.397 76.5905 121.041 76.8199 121.49 77.2787C121.944 77.7325 122.171 78.3813 122.171 79.2249C122.171 80.0635 121.949 80.7098 121.505 81.1637C121.061 81.6175 120.427 81.8445 119.603 81.8445H117.812ZM118.774 81.0083H119.559C120.106 81.0083 120.513 80.8603 120.78 80.5643C121.046 80.2683 121.179 79.8218 121.179 79.2249C121.179 78.6181 121.046 78.1667 120.78 77.8707C120.513 77.5747 120.106 77.4267 119.559 77.4267H118.774V81.0083Z" fill="black"/>
<path d="M140.391 81.8445V77.4267H138.792V76.5905H142.944V77.4267H141.353V81.8445H140.391ZM143.458 81.8445V76.5905H144.42V79.0991L143.976 78.7809H147.069L146.633 79.0991V76.5905H147.595V81.8445H146.633V79.3063L147.069 79.6171H143.976L144.42 79.3063V81.8445H143.458ZM150.876 81.9629C150.452 81.9629 150.079 81.8815 149.759 81.7187C149.443 81.5559 149.199 81.3265 149.026 81.0305C148.858 80.7295 148.774 80.3743 148.774 79.9649V76.5831H149.736V79.9649C149.736 80.3349 149.835 80.621 150.032 80.8233C150.23 81.0255 150.511 81.1267 150.876 81.1267C151.241 81.1267 151.522 81.0255 151.72 80.8233C151.922 80.621 152.023 80.3349 152.023 79.9649V76.5831H152.985V79.9649C152.985 80.3743 152.899 80.7295 152.726 81.0305C152.553 81.3265 152.309 81.5559 151.993 81.7187C151.683 81.8815 151.31 81.9629 150.876 81.9629Z" fill="black"/>
<path d="M172.963 81.8445V76.5905H176.478V77.4267H173.399L173.925 76.8865V79.2989L173.399 78.8623H176.345V79.6911H173.399L173.925 79.2545V81.8445H172.963ZM177.284 81.8445V76.5905H179.482C179.862 76.5905 180.19 76.6546 180.466 76.7829C180.743 76.9111 180.957 77.0937 181.11 77.3305C181.263 77.5673 181.34 77.846 181.34 78.1667C181.34 78.4084 181.288 78.623 181.184 78.8105C181.081 78.9979 180.94 79.1484 180.762 79.2619C180.59 79.3753 180.397 79.4444 180.185 79.4691L180.148 79.3951C180.489 79.3951 180.75 79.4715 180.933 79.6245C181.12 79.7774 181.226 80.0117 181.251 80.3275L181.384 81.8445H180.407L180.296 80.4681C180.281 80.2609 180.215 80.1079 180.096 80.0093C179.978 79.9106 179.781 79.8613 179.504 79.8613H178.246V81.8445H177.284ZM178.246 79.0177H179.423C179.714 79.0177 179.941 78.9486 180.104 78.8105C180.267 78.6723 180.348 78.4775 180.348 78.2259C180.348 77.9693 180.264 77.772 180.096 77.6339C179.934 77.4957 179.694 77.4267 179.379 77.4267H178.246V79.0177ZM182.386 81.8445V76.5905H183.348V81.8445H182.386Z" fill="black"/>
<path d="M206.041 81.9629C205.607 81.9629 205.232 81.8864 204.916 81.7335C204.6 81.5805 204.351 81.3684 204.169 81.0971C203.991 80.8208 203.888 80.5001 203.858 80.1351L204.835 80.0759C204.864 80.3028 204.929 80.4952 205.027 80.6531C205.131 80.8109 205.266 80.9318 205.434 81.0157C205.607 81.0946 205.814 81.1341 206.056 81.1341C206.263 81.1341 206.438 81.1094 206.581 81.0601C206.729 81.0058 206.84 80.9293 206.914 80.8307C206.993 80.7271 207.033 80.6013 207.033 80.4533C207.033 80.3201 207.001 80.2017 206.936 80.0981C206.872 79.9895 206.749 79.8933 206.566 79.8095C206.384 79.7207 206.113 79.6343 205.752 79.5505C205.318 79.4518 204.97 79.3408 204.709 79.2175C204.448 79.0892 204.258 78.9313 204.139 78.7439C204.021 78.5515 203.962 78.3122 203.962 78.0261C203.962 77.7202 204.038 77.4513 204.191 77.2195C204.344 76.9827 204.561 76.8001 204.842 76.6719C205.123 76.5387 205.461 76.4721 205.856 76.4721C206.275 76.4721 206.631 76.5485 206.922 76.7015C207.213 76.8495 207.442 77.0542 207.61 77.3157C207.778 77.5771 207.881 77.8781 207.921 78.2185L206.951 78.2629C206.927 78.0705 206.867 77.9027 206.774 77.7597C206.685 77.6166 206.561 77.5056 206.404 77.4267C206.251 77.3428 206.063 77.3009 205.841 77.3009C205.565 77.3009 205.345 77.365 205.183 77.4933C205.025 77.6166 204.946 77.7819 204.946 77.9891C204.946 78.1321 204.978 78.2505 205.042 78.3443C205.111 78.438 205.232 78.5194 205.405 78.5885C205.577 78.6526 205.819 78.7217 206.13 78.7957C206.598 78.8943 206.971 79.0201 207.247 79.1731C207.523 79.326 207.721 79.5036 207.839 79.7059C207.958 79.9081 208.017 80.14 208.017 80.4015C208.017 80.7221 207.935 81.0009 207.773 81.2377C207.61 81.4695 207.38 81.6496 207.084 81.7779C206.788 81.9012 206.441 81.9629 206.041 81.9629ZM208.268 81.8445L210.162 76.5905H211.339L213.233 81.8445H212.227L211.79 80.6013H209.711L209.274 81.8445H208.268ZM209.992 79.7799H211.509L210.754 77.5599L209.992 79.7799ZM214.338 81.8445V77.4267H212.739V76.5905H216.891V77.4267H215.3V81.8445H214.338Z" fill="black"/>
<path d="M236.984 81.9629C236.55 81.9629 236.175 81.8864 235.859 81.7335C235.543 81.5805 235.294 81.3684 235.111 81.0971C234.934 80.8208 234.83 80.5001 234.801 80.1351L235.777 80.0759C235.807 80.3028 235.871 80.4952 235.97 80.6531C236.073 80.8109 236.209 80.9318 236.377 81.0157C236.55 81.0946 236.757 81.1341 236.998 81.1341C237.206 81.1341 237.381 81.1094 237.524 81.0601C237.672 81.0058 237.783 80.9293 237.857 80.8307C237.936 80.7271 237.975 80.6013 237.975 80.4533C237.975 80.3201 237.943 80.2017 237.879 80.0981C237.815 79.9895 237.692 79.8933 237.509 79.8095C237.327 79.7207 237.055 79.6343 236.695 79.5505C236.261 79.4518 235.913 79.3408 235.652 79.2175C235.39 79.0892 235.2 78.9313 235.082 78.7439C234.963 78.5515 234.904 78.3122 234.904 78.0261C234.904 77.7202 234.981 77.4513 235.134 77.2195C235.287 76.9827 235.504 76.8001 235.785 76.6719C236.066 76.5387 236.404 76.4721 236.799 76.4721C237.218 76.4721 237.573 76.5485 237.864 76.7015C238.155 76.8495 238.385 77.0542 238.552 77.3157C238.72 77.5771 238.824 77.8781 238.863 78.2185L237.894 78.2629C237.869 78.0705 237.81 77.9027 237.716 77.7597C237.627 77.6166 237.504 77.5056 237.346 77.4267C237.193 77.3428 237.006 77.3009 236.784 77.3009C236.508 77.3009 236.288 77.365 236.125 77.4933C235.967 77.6166 235.888 77.7819 235.888 77.9891C235.888 78.1321 235.921 78.2505 235.985 78.3443C236.054 78.438 236.175 78.5194 236.347 78.5885C236.52 78.6526 236.762 78.7217 237.072 78.7957C237.541 78.8943 237.914 79.0201 238.19 79.1731C238.466 79.326 238.663 79.5036 238.782 79.7059C238.9 79.9081 238.959 80.14 238.959 80.4015C238.959 80.7221 238.878 81.0009 238.715 81.2377C238.552 81.4695 238.323 81.6496 238.027 81.7779C237.731 81.9012 237.383 81.9629 236.984 81.9629ZM241.934 81.9629C241.51 81.9629 241.137 81.8815 240.817 81.7187C240.501 81.5559 240.257 81.3265 240.084 81.0305C239.916 80.7295 239.832 80.3743 239.832 79.9649V76.5831H240.794V79.9649C240.794 80.3349 240.893 80.621 241.09 80.8233C241.288 81.0255 241.569 81.1267 241.934 81.1267C242.299 81.1267 242.58 81.0255 242.778 80.8233C242.98 80.621 243.081 80.3349 243.081 79.9649V76.5831H244.043V79.9649C244.043 80.3743 243.957 80.7295 243.784 81.0305C243.611 81.3265 243.367 81.5559 243.051 81.7187C242.741 81.8815 242.368 81.9629 241.934 81.9629ZM245.226 81.8445V76.5905H246.351L248.615 80.5421V76.5905H249.577V81.8445H248.423L246.188 78.0039V81.8445H245.226Z" fill="black"/>
<circle cx="49.8887" cy="104.267" r="8.22222" fill="#EDEFF1"/>
<circle cx="81.9551" cy="104.267" r="8.22222" fill="#CACACA"/>
<circle cx="114.022" cy="104.267" r="8.22222" fill="#EDEFF1"/>
<circle cx="146.089" cy="104.267" r="8.22222" fill="#EDEFF1"/>
<circle cx="178.155" cy="104.267" r="8.22222" fill="#EDEFF1"/>
<circle cx="210.222" cy="104.267" r="8.22222" fill="#CACACA"/>
<circle cx="242.289" cy="104.267" r="8.22222" fill="#EDEFF1"/>
<circle cx="49.8887" cy="134.689" r="8.22222" fill="#EDEFF1"/>
<circle cx="81.9551" cy="134.689" r="8.22222" fill="#EDEFF1"/>
<circle cx="113.2" cy="133.867" r="8.22222" fill="#CACACA"/>
<circle cx="146.089" cy="134.689" r="8.22222" fill="#EDEFF1"/>
<circle cx="178.155" cy="134.689" r="8.22222" fill="#EDEFF1"/>
<circle cx="210.222" cy="134.689" r="8.22222" fill="#EDEFF1"/>
<circle cx="242.289" cy="134.689" r="8.22222" fill="#EDEFF1"/>
<circle cx="49.8887" cy="197.178" r="8.22222" fill="#EDEFF1"/>
<circle cx="81.9551" cy="197.178" r="8.22222" fill="#EDEFF1"/>
<circle cx="114.022" cy="197.178" r="8.22222" fill="#EDEFF1"/>
<circle cx="146.089" cy="197.178" r="8.22222" fill="#CACACA"/>
<circle cx="178.155" cy="197.178" r="8.22222" fill="#EDEFF1"/>
<circle cx="210.222" cy="197.178" r="8.22222" fill="#CACACA"/>
<circle cx="242.289" cy="197.178" r="8.22222" fill="#EDEFF1"/>
<circle cx="49.8887" cy="226.778" r="8.22222" fill="#EDEFF1"/>
<circle cx="81.9551" cy="226.778" r="8.22222" fill="#EDEFF1"/>
<circle cx="114.022" cy="226.778" r="8.22222" fill="#EDEFF1"/>
<circle cx="146.089" cy="226.778" r="8.22222" fill="#EDEFF1"/>
<circle cx="178.155" cy="226.778" r="8.22222" fill="#EDEFF1"/>
<circle cx="210.222" cy="226.778" r="8.22222" fill="#EDEFF1"/>
<circle cx="242.289" cy="226.778" r="8.22222" fill="#EDEFF1"/>
<rect x="67.9775" y="152.778" width="187.467" height="25.4889" rx="12.7444" fill="#B3B3B3" fill-opacity="0.2"/>
<rect x="35.9111" y="184.844" width="59.2" height="25.4889" rx="12.7444" fill="#B3B3B3" fill-opacity="0.2"/>
<circle cx="49.8887" cy="165.933" r="8.22222" fill="#EDEFF1"/>
<circle cx="82.3662" cy="165.522" r="9.45556" fill="#CACACA"/>
<circle cx="114.433" cy="165.522" r="9.45556" fill="#CACACA"/>
<circle cx="146.499" cy="165.522" r="9.45556" fill="#CACACA"/>
<circle cx="178.566" cy="165.522" r="9.45556" fill="#CACACA"/>
<circle cx="210.633" cy="165.522" r="9.45556" fill="#CACACA"/>
<circle cx="242.7" cy="165.522" r="9.45556" fill="#CACACA"/>
<circle cx="49.4775" cy="197.589" r="9.45556" fill="#CACACA"/>
<circle cx="81.5444" cy="197.589" r="9.45556" fill="#CACACA"/>
</g>
<path d="M35 13.375H258C267.734 13.375 275.625 21.266 275.625 31V240.845C275.625 250.579 267.734 258.47 258 258.47H35C25.2661 258.47 17.3751 250.579 17.375 240.845V31C17.375 21.266 25.266 13.375 35 13.375Z" stroke="url(#paint0_linear_204_14351)" stroke-opacity="0.2" stroke-width="0.75"/>
</g>
</g>
<defs>
<filter id="filter0_d_204_14351" x="15.875" y="12.25" width="262" height="248.844" filterUnits="userSpaceOnUse" color-interpolation-filters="sRGB">
<feFlood flood-opacity="0" result="BackgroundImageFix"/>
<feColorMatrix in="SourceAlpha" type="matrix" values="0 0 0 0 0 0 0 0 0 0 0 0 0 0 0 0 0 0 127 0" result="hardAlpha"/>
<feOffset dx="0.375" dy="0.75"/>
<feGaussianBlur stdDeviation="0.75"/>
<feComposite in2="hardAlpha" operator="out"/>
<feColorMatrix type="matrix" values="0 0 0 0 0 0 0 0 0 0 0 0 0 0 0 0 0 0 0.15 0"/>
<feBlend mode="normal" in2="BackgroundImageFix" result="effect1_dropShadow_204_14351"/>
<feBlend mode="normal" in="SourceGraphic" in2="effect1_dropShadow_204_14351" result="shape"/>
</filter>
<filter id="filter1_d_204_14351" x="0.555555" y="0.666667" width="291.889" height="278.733" filterUnits="userSpaceOnUse" color-interpolation-filters="sRGB">
<feFlood flood-opacity="0" result="BackgroundImageFix"/>
<feColorMatrix in="SourceAlpha" type="matrix" values="0 0 0 0 0 0 0 0 0 0 0 0 0 0 0 0 0 0 127 0" result="hardAlpha"/>
<feOffset dy="4.11111"/>
<feGaussianBlur stdDeviation="8.22222"/>
<feComposite in2="hardAlpha" operator="out"/>
<feColorMatrix type="matrix" values="0 0 0 0 0 0 0 0 0 0 0 0 0 0 0 0 0 0 0.05 0"/>
<feBlend mode="normal" in2="BackgroundImageFix" result="effect1_dropShadow_204_14351"/>
<feBlend mode="normal" in="SourceGraphic" in2="effect1_dropShadow_204_14351" result="shape"/>
</filter>
<linearGradient id="paint0_linear_204_14351" x1="17.9673" y1="23.0142" x2="170.841" y2="302.708" gradientUnits="userSpaceOnUse">
<stop stop-color="#1C1C1C" stop-opacity="0.45"/>
<stop offset="1" stop-color="#828282"/>
</linearGradient>
<clipPath id="clip0_204_14351">
<path d="M17 31C17 21.0589 25.0589 13 35 13H258C267.941 13 276 21.0589 276 31V240.844C276 250.786 267.941 258.844 258 258.844H35C25.0589 258.844 17 250.786 17 240.844V31Z" fill="white"/>
</clipPath>
</defs>
</svg>
