<svg width="425" height="224" viewBox="0 0 425 224" fill="none" xmlns="http://www.w3.org/2000/svg">
<g filter="url(#filter0_d_164_76)">
<g clip-path="url(#clip0_164_76)">
<rect x="16.4088" width="424" height="218" rx="24" transform="rotate(16.9098 16.4088 0)" fill="white"/>
<path d="M41.7892 48.8007L41.3063 50.3891C40.7477 52.2267 39.6625 53.5469 38.0506 54.3497C36.4407 55.1464 34.6173 55.2351 32.5805 54.6159C30.5 53.9834 28.9803 52.7933 28.0214 51.0456C27.0626 49.2979 26.8832 47.4367 27.4835 45.4622C28.0857 43.4814 29.2653 42.0299 31.0222 41.1079C32.7791 40.1858 34.6573 40.0287 36.6568 40.6366C38.2763 41.1289 39.5358 41.9439 40.4352 43.0815C41.3408 44.221 41.838 45.4507 41.9267 46.7705L38.7185 46.7138C38.4218 45.1606 37.445 44.1322 35.7881 43.6285C34.6544 43.2838 33.6067 43.3838 32.645 43.9284C31.6895 44.4749 31.0433 45.3025 30.7062 46.4113C30.3691 47.52 30.451 48.5826 30.9517 49.599C31.4587 50.6173 32.3818 51.3301 33.721 51.7372C34.6242 52.0118 35.4183 52.0184 36.1033 51.7572C36.7965 51.4916 37.3044 51.0744 37.627 50.5056L34.1082 49.4563L34.9405 46.7187L41.7892 48.8007ZM49.6609 58.1958C48.3713 58.8789 46.9666 58.9894 45.4467 58.5273C43.9331 58.0672 42.8307 57.1944 42.1395 55.9092C41.4483 54.6239 41.3252 53.2494 41.7702 51.7856C42.2171 50.3156 43.0844 49.2421 44.3721 48.5653C45.6617 47.8822 47.0633 47.7707 48.5769 48.2309C50.0968 48.6929 51.2023 49.5666 51.8935 50.8519C52.5866 52.1309 52.7097 53.5054 52.2628 54.9755C51.8178 56.4393 50.9505 57.5127 49.6609 58.1958ZM44.8354 54.5955C45.1164 55.1709 45.5995 55.5627 46.2847 55.771C46.9761 55.9812 47.5955 55.9246 48.1429 55.6011C48.6966 55.2794 49.0795 54.7698 49.2916 54.0722C49.5056 53.3683 49.4711 52.7318 49.1882 52.1627C48.9135 51.5892 48.4304 51.1974 47.739 50.9872C47.0538 50.7789 46.4344 50.8355 45.8807 51.1572C45.3351 51.4744 44.9554 51.985 44.7414 52.6889C44.5293 53.3865 44.5606 54.0221 44.8354 54.5955ZM60.9201 61.6187C59.6305 62.3018 58.2257 62.4123 56.7059 61.9502C55.1922 61.4901 54.0898 60.6173 53.3986 59.3321C52.7074 58.0468 52.5843 56.6723 53.0293 55.2085C53.4762 53.7385 54.3435 52.665 55.6312 51.9882C56.9208 51.3051 58.3225 51.1936 59.8361 51.6538C61.356 52.1158 62.4615 52.9895 63.1527 54.2748C63.8458 55.5538 63.9689 56.9283 63.522 58.3984C63.077 59.8622 62.2097 60.9356 60.9201 61.6187ZM56.0946 58.0184C56.3755 58.5938 56.8586 58.9856 57.5438 59.1939C58.2352 59.4041 58.8547 59.3475 59.4021 59.024C59.9558 58.7023 60.3387 58.1927 60.5508 57.4951C60.7648 56.7912 60.7303 56.1547 60.4474 55.5856C60.1726 55.0121 59.6896 54.6203 58.9981 54.4101C58.313 54.2018 57.6935 54.2584 57.1399 54.5801C56.5943 54.8973 56.2145 55.4079 56.0005 56.1118C55.7884 56.8094 55.8198 57.445 56.0946 58.0184ZM74.6111 51.8382L77.6757 52.7699L73.4292 66.7383L70.3646 65.8066L70.6373 64.9096C69.6593 65.4629 68.6035 65.5672 67.4698 65.2226C66.1431 64.8192 65.1684 63.9853 64.5457 62.7209C63.9292 61.4584 63.8435 60.0952 64.2885 58.6314C64.7354 57.1614 65.5653 56.0766 66.7783 55.377C67.9994 54.6731 69.2733 54.5228 70.6001 54.9261C71.7586 55.2784 72.5777 55.9527 73.0574 56.9491L74.6111 51.8382ZM68.857 62.6741C69.536 62.8805 70.1626 62.8226 70.7368 62.5004C71.3173 62.1802 71.7174 61.6588 71.9371 60.9362C72.1549 60.2199 72.1098 59.5734 71.802 58.9967C71.4961 58.4137 71.0068 58.02 70.3341 57.8155C69.6738 57.6148 69.0606 57.6733 68.4945 57.9911C67.9302 58.3027 67.5392 58.8167 67.3214 59.533C67.0999 60.2618 67.1349 60.9189 67.4264 61.5043C67.7199 62.0834 68.1968 62.4733 68.857 62.6741ZM79.2149 68.7932C78.0127 68.4277 77.0531 67.8127 76.336 66.9483C75.6208 66.0776 75.2615 65.1893 75.2579 64.2832L78.2305 64.3091C78.2699 64.7838 78.446 65.2116 78.7589 65.5925C79.0781 65.9753 79.5117 66.25 80.0598 66.4167C80.4273 66.5284 80.744 66.5498 81.0099 66.481C81.2777 66.4059 81.441 66.2718 81.4997 66.0787C81.5963 65.761 81.3668 65.419 80.8113 65.0528L78.6856 63.6513C77.1927 62.6531 76.646 61.4968 77.0456 60.1825C77.305 59.3291 77.9214 58.734 78.8948 58.3971C79.8682 58.0602 80.9093 58.0603 82.0181 58.3973C83.0645 58.7155 83.9151 59.219 84.5698 59.908C85.2265 60.5907 85.5972 61.3635 85.6819 62.2262L82.7674 62.1772C82.517 61.4342 82.0243 60.951 81.2893 60.7275C81.009 60.6423 80.748 60.6276 80.5065 60.6835C80.2669 60.7331 80.1205 60.8451 80.0675 61.0195C79.9899 61.2749 80.118 61.5248 80.452 61.7692L82.5134 63.0798C82.9241 63.3407 83.259 63.582 83.5182 63.8037C83.7774 64.0255 84.0234 64.2908 84.2561 64.5997C84.4969 64.9042 84.6378 65.2465 84.6789 65.6264C84.728 66.002 84.6844 66.414 84.548 66.8625C84.2602 67.8093 83.6186 68.4648 82.6233 68.8291C81.6279 69.1933 80.4918 69.1814 79.2149 68.7932ZM97.4896 74.0529L95.9777 68.7858L93.6792 68.087L92.3414 72.4878L89.202 71.5334L93.2752 58.1349L99.9745 60.1716C101.388 60.6014 102.392 61.4067 102.986 62.5875C103.588 63.7639 103.708 64.947 103.346 66.1367C103.079 67.015 102.593 67.7519 101.888 68.3473C101.183 68.9427 100.344 69.2863 99.37 69.3782L101.143 75.1635L97.4896 74.0529ZM95.5511 61.9297L94.5229 65.312L97.8491 66.3232C98.3973 66.4899 98.899 66.4621 99.3544 66.2399C99.8161 66.0196 100.119 65.6728 100.263 65.1994C100.403 64.7384 100.349 64.2899 100.1 63.8537C99.8581 63.4194 99.494 63.1284 99.0082 62.9807L95.5511 61.9297ZM106.601 77.119C105.007 76.6342 103.858 75.7679 103.156 74.52C102.455 73.2659 102.336 71.8789 102.798 70.359C103.252 68.8641 104.104 67.7756 105.352 67.0936C106.602 66.4054 107.997 66.2952 109.535 66.7629C111.105 67.2401 112.202 68.0975 112.826 69.3351C113.458 70.5684 113.553 71.9139 113.11 73.3714C112.994 73.7514 112.867 74.0802 112.728 74.3578L105.515 72.1649C105.405 73.3562 106.044 74.163 107.433 74.5853C108.367 74.8693 109.119 74.7371 109.687 74.1885L112.199 75.83C111.68 76.4411 110.911 76.8982 109.894 77.2012C108.882 77.5062 107.785 77.4788 106.601 77.119ZM106.075 70.3243L110.382 71.6337C110.472 71.1577 110.37 70.698 110.076 70.2548C109.789 69.8135 109.343 69.501 108.739 69.3173C108.141 69.1355 107.598 69.151 107.112 69.3637C106.631 69.5783 106.286 69.8985 106.075 70.3243ZM117.506 80.4339C115.998 79.9757 114.899 79.1039 114.208 77.8186C113.516 76.5334 113.393 75.1589 113.838 73.6951C114.285 72.225 115.149 71.1506 116.431 70.4719C117.714 69.7869 119.1 69.6707 120.589 70.1233C121.891 70.5191 122.875 71.189 123.54 72.1331C124.214 73.0728 124.524 74.0006 124.47 74.9164L121.395 74.8593C121.423 74.4528 121.293 74.0526 121.005 73.6587C120.716 73.2648 120.31 72.9883 119.787 72.8292C119.127 72.6285 118.519 72.7024 117.964 73.0508C117.417 73.3949 117.04 73.9064 116.834 74.5853C116.629 75.258 116.656 75.8989 116.913 76.5078C117.176 77.1187 117.638 77.5244 118.298 77.7252C118.822 77.8842 119.309 77.8826 119.76 77.7203C120.217 77.5598 120.549 77.3069 120.756 76.9616L123.342 78.6258C122.878 79.4166 122.111 80.0137 121.042 80.417C119.974 80.8203 118.795 80.8259 117.506 80.4339ZM128.372 83.7375C126.778 83.2528 125.629 82.3864 124.927 81.1385C124.226 79.8844 124.107 78.4974 124.569 76.9776C125.023 75.4826 125.875 74.3942 127.123 73.7122C128.373 73.024 129.768 72.9137 131.306 73.3815C132.876 73.8587 133.973 74.7161 134.597 75.9537C135.229 77.187 135.324 78.5324 134.88 79.99C134.765 80.3699 134.638 80.6987 134.499 80.9763L127.286 78.7835C127.175 79.9748 127.815 80.7815 129.204 81.2038C130.138 81.4879 130.889 81.3556 131.458 80.8071L133.97 82.4486C133.451 83.0596 132.682 83.5167 131.665 83.8198C130.653 84.1247 129.556 84.0973 128.372 83.7375ZM127.845 76.9428L132.153 78.2523C132.243 77.7762 132.141 77.3166 131.847 76.8734C131.56 76.4321 131.114 76.1196 130.509 75.9359C129.911 75.7541 129.369 75.7695 128.883 75.9823C128.402 76.1969 128.057 76.5171 127.845 76.9428ZM140.915 74.8125C140.47 75.0447 140.005 75.0869 139.519 74.9392C139.04 74.7934 138.677 74.4993 138.43 74.0569C138.192 73.6102 138.146 73.1439 138.294 72.658C138.438 72.1846 138.731 71.8349 139.174 71.6089C139.623 71.3848 140.088 71.3457 140.567 71.4915C141.053 71.6392 141.416 71.9333 141.657 72.3739C141.905 72.81 141.958 73.2617 141.816 73.7289C141.669 74.2147 141.368 74.5759 140.915 74.8125ZM134.65 85.3499L137.615 75.5954L140.671 76.5243L137.705 86.2788L134.65 85.3499ZM149.444 79.1916L152.789 80.2085L145.89 88.7671L142.443 87.719L141.465 76.7658L144.829 77.7884L145.221 84.7566L149.444 79.1916ZM154.955 91.8191C153.361 91.3343 152.212 90.4679 151.51 89.2201C150.809 87.9659 150.69 86.579 151.152 85.0591C151.606 83.5641 152.458 82.4757 153.706 81.7937C154.956 81.1055 156.351 80.9953 157.889 81.463C159.459 81.9402 160.556 82.7976 161.18 84.0352C161.812 85.2685 161.907 86.6139 161.464 88.0715C161.348 88.4515 161.221 88.7803 161.082 89.0579L153.869 86.865C153.759 88.0563 154.398 88.8631 155.787 89.2854C156.721 89.5694 157.473 89.4372 158.041 88.8886L160.553 90.5301C160.034 91.1412 159.265 91.5982 158.248 91.9013C157.236 92.2063 156.139 92.1789 154.955 91.8191ZM154.429 85.0244L158.736 86.3338C158.826 85.8577 158.724 85.3981 158.43 84.9549C158.143 84.5136 157.697 84.2011 157.092 84.0174C156.494 83.8356 155.952 83.8511 155.466 84.0638C154.985 84.2784 154.64 84.5986 154.429 85.0244ZM172.515 81.602L175.58 82.5336L171.333 96.502L168.268 95.5703L168.541 94.6734C167.563 95.2266 166.507 95.331 165.374 94.9863C164.047 94.583 163.072 93.7491 162.45 92.4846C161.833 91.2221 161.747 89.8589 162.192 88.3951C162.639 86.9251 163.469 85.8403 164.682 85.1407C165.903 84.4368 167.177 84.2865 168.504 84.6899C169.662 85.0421 170.482 85.7164 170.961 86.7128L172.515 81.602ZM166.761 92.4378C167.44 92.6442 168.066 92.5863 168.641 92.2642C169.221 91.9439 169.621 91.4225 169.841 90.7C170.059 89.9836 170.014 89.3371 169.706 88.7604C169.4 88.1775 168.911 87.7838 168.238 87.5792C167.578 87.3785 166.964 87.4371 166.398 87.7549C165.834 88.0665 165.443 88.5804 165.225 89.2968C165.004 90.0256 165.039 90.6826 165.33 91.268C165.624 91.8472 166.101 92.2371 166.761 92.4378ZM190.132 87.5804L193.309 88.5462L189.236 101.945L186.657 101.161L182.963 91.6576L180.63 99.3285L177.454 98.3628L181.527 84.9643L184.106 85.7483L187.797 95.2607L190.132 87.5804ZM199.955 103.887C198.665 104.57 197.261 104.68 195.741 104.218C194.227 103.758 193.125 102.885 192.434 101.6C191.742 100.315 191.619 98.9403 192.064 97.4765C192.511 96.0065 193.379 94.933 194.666 94.2562C195.956 93.5731 197.357 93.4617 198.871 93.9218C200.391 94.3839 201.496 95.2575 202.188 96.5428C202.881 97.8218 203.004 99.1963 202.557 100.666C202.112 102.13 201.245 103.204 199.955 103.887ZM195.13 100.286C195.411 100.862 195.894 101.254 196.579 101.462C197.27 101.672 197.89 101.615 198.437 101.292C198.991 100.97 199.374 100.461 199.586 99.7631C199.8 99.0592 199.765 98.4227 199.482 97.8536C199.208 97.2801 198.725 96.8883 198.033 96.6781C197.348 96.4698 196.729 96.5265 196.175 96.8481C195.629 97.1653 195.249 97.6759 195.036 98.3798C194.823 99.0774 194.855 99.713 195.13 100.286ZM208.621 104.827L208.611 107.478C207.711 107.551 206.866 107.468 206.075 107.227C204.928 106.879 204.164 106.292 203.782 105.469C203.408 104.64 203.395 103.653 203.743 102.507L204.825 98.9472L203.312 98.487L204.124 95.8148L205.638 96.275L206.569 93.2103L209.634 94.142L208.702 97.2066L211.328 98.0048L210.516 100.677L207.89 99.8788L206.808 103.439C206.601 104.118 206.835 104.559 207.507 104.764C207.881 104.878 208.252 104.899 208.621 104.827ZM213.971 109.76C212.376 109.275 211.227 108.409 210.525 107.161C209.824 105.907 209.705 104.52 210.167 103C210.621 101.505 211.473 100.417 212.721 99.7349C213.972 99.0467 215.366 98.9364 216.905 99.4042C218.474 99.8814 219.571 100.739 220.195 101.976C220.827 103.21 220.922 104.555 220.479 106.013C220.363 106.393 220.236 106.721 220.097 106.999L212.884 104.806C212.774 105.997 213.413 106.804 214.802 107.227C215.736 107.511 216.488 107.378 217.056 106.83L219.568 108.471C219.049 109.082 218.28 109.539 217.263 109.843C216.251 110.147 215.154 110.12 213.971 109.76ZM213.444 102.966L217.751 104.275C217.841 103.799 217.739 103.339 217.445 102.896C217.158 102.455 216.712 102.142 216.108 101.959C215.51 101.777 214.967 101.792 214.481 102.005C214 102.22 213.655 102.54 213.444 102.966ZM228.612 116.732L225.65 115.832C224.925 113.046 225.043 110.017 226.004 106.743C226.952 103.534 228.54 100.951 230.768 98.9951L233.73 99.8956C231.527 101.859 229.939 104.442 228.966 107.644C227.992 110.845 227.874 113.875 228.612 116.732ZM245.791 110.819L245.309 112.408C244.75 114.245 243.665 115.566 242.053 116.368C240.443 117.165 238.62 117.254 236.583 116.635C234.502 116.002 232.983 114.812 232.024 113.064C231.065 111.317 230.885 109.455 231.486 107.481C232.088 105.5 233.268 104.049 235.024 103.127C236.781 102.205 238.66 102.047 240.659 102.655C242.279 103.148 243.538 103.963 244.437 105.1C245.343 106.24 245.84 107.469 245.929 108.789L242.721 108.733C242.424 107.179 241.447 106.151 239.79 105.647C238.657 105.303 237.609 105.403 236.647 105.947C235.692 106.494 235.045 107.321 234.708 108.43C234.371 109.539 234.453 110.601 234.954 111.618C235.461 112.636 236.384 113.349 237.723 113.756C238.626 114.03 239.421 114.037 240.106 113.776C240.799 113.51 241.307 113.093 241.629 112.524L238.11 111.475L238.943 108.737L245.791 110.819ZM253.157 121.377L251.645 116.11L249.346 115.411L248.008 119.812L244.869 118.858L248.942 105.459L255.641 107.496C257.055 107.926 258.059 108.731 258.653 109.912C259.255 111.088 259.375 112.271 259.013 113.461C258.746 114.339 258.26 115.076 257.555 115.672C256.85 116.267 256.011 116.611 255.037 116.702L256.81 122.488L253.157 121.377ZM251.218 109.254L250.19 112.636L253.516 113.648C254.064 113.814 254.566 113.786 255.021 113.564C255.483 113.344 255.786 112.997 255.93 112.524C256.07 112.063 256.016 111.614 255.767 111.178C255.525 110.744 255.161 110.453 254.675 110.305L251.218 109.254ZM270.638 112.055L273.815 113.021L269.741 126.419L267.163 125.635L263.468 116.132L261.136 123.803L257.959 122.837L262.033 109.439L264.611 110.223L268.303 119.735L270.638 112.055ZM269.92 129.291C272.123 127.327 273.711 124.744 274.685 121.543C275.658 118.341 275.776 115.311 275.039 112.454L278.01 113.357C278.772 116.222 278.651 119.251 277.646 122.443C276.629 125.699 275.044 128.283 272.891 130.194L269.92 129.291Z" fill="#B7B7B7"/>
<rect x="17.5524" y="66.7172" width="96" height="20" transform="rotate(16.9098 17.5524 66.7172)" stroke="#D9D9D9"/>
<rect x="109.402" y="94.6403" width="96" height="20" transform="rotate(16.9098 109.402 94.6403)" stroke="#D9D9D9"/>
<rect x="201.251" y="122.563" width="96" height="20" transform="rotate(16.9098 201.251 122.563)" stroke="#D9D9D9"/>
<rect x="293.1" y="150.486" width="96" height="20" transform="rotate(16.9098 293.1 150.486)" stroke="#D9D9D9"/>
<rect x="384.95" y="178.41" width="96" height="20" transform="rotate(16.9098 384.95 178.41)" stroke="#D9D9D9"/>
<rect x="11.7351" y="85.8525" width="96" height="20" transform="rotate(16.9098 11.7351 85.8525)" stroke="#D9D9D9"/>
<rect x="103.584" y="113.776" width="96" height="20" transform="rotate(16.9098 103.584 113.776)" stroke="#D9D9D9"/>
<rect x="195.434" y="141.699" width="96" height="20" transform="rotate(16.9098 195.434 141.699)" stroke="#D9D9D9"/>
<rect x="287.283" y="169.622" width="96" height="20" transform="rotate(16.9098 287.283 169.622)" stroke="#D9D9D9"/>
<rect x="379.132" y="197.545" width="96" height="20" transform="rotate(16.9098 379.132 197.545)" stroke="#D9D9D9"/>
<rect x="5.91779" y="104.988" width="96" height="20" transform="rotate(16.9098 5.91779 104.988)" stroke="#D9D9D9"/>
<rect x="97.7671" y="132.911" width="96" height="20" transform="rotate(16.9098 97.7671 132.911)" stroke="#D9D9D9"/>
<rect x="189.616" y="160.834" width="96" height="20" transform="rotate(16.9098 189.616 160.834)" stroke="#D9D9D9"/>
<rect x="281.466" y="188.757" width="96" height="20" transform="rotate(16.9098 281.466 188.757)" stroke="#D9D9D9"/>
<rect x="373.315" y="216.68" width="96" height="20" transform="rotate(16.9098 373.315 216.68)" stroke="#D9D9D9"/>
<rect x="0.100466" y="124.123" width="96" height="20" transform="rotate(16.9098 0.100466 124.123)" stroke="#D9D9D9"/>
<rect x="91.9498" y="152.046" width="96" height="20" transform="rotate(16.9098 91.9498 152.046)" stroke="#D9D9D9"/>
<rect x="183.799" y="179.969" width="96" height="20" transform="rotate(16.9098 183.799 179.969)" stroke="#D9D9D9"/>
<rect x="275.648" y="207.892" width="96" height="20" transform="rotate(16.9098 275.648 207.892)" stroke="#D9D9D9"/>
<rect x="-5.71686" y="143.258" width="96" height="20" transform="rotate(16.9098 -5.71686 143.258)" stroke="#D9D9D9"/>
<rect x="86.1324" y="171.181" width="96" height="20" transform="rotate(16.9098 86.1324 171.181)" stroke="#D9D9D9"/>
<rect x="177.982" y="199.105" width="96" height="20" transform="rotate(16.9098 177.982 199.105)" stroke="#D9D9D9"/>
<rect x="-11.5341" y="162.394" width="96" height="20" transform="rotate(16.9098 -11.5341 162.394)" stroke="#D9D9D9"/>
<rect x="80.3152" y="190.317" width="96" height="20" transform="rotate(16.9098 80.3152 190.317)" stroke="#D9D9D9"/>
<rect x="172.165" y="218.24" width="96" height="20" transform="rotate(16.9098 172.165 218.24)" stroke="#D9D9D9"/>
<rect x="-17.3514" y="181.529" width="96" height="20" transform="rotate(16.9098 -17.3514 181.529)" stroke="#D9D9D9"/>
<rect x="74.4979" y="209.452" width="96" height="20" transform="rotate(16.9098 74.4979 209.452)" stroke="#D9D9D9"/>
<rect x="-23.1688" y="200.664" width="96" height="20" transform="rotate(16.9098 -23.1688 200.664)" stroke="#D9D9D9"/>
<rect x="-28.9861" y="219.799" width="96" height="20" transform="rotate(16.9098 -28.9861 219.799)" stroke="#D9D9D9"/>
<rect x="21.2148" y="73.5792" width="73" height="9" rx="4.5" transform="rotate(16.9098 21.2148 73.5792)" fill="#A1A1A1"/>
<rect x="15.3975" y="92.7145" width="73" height="9" rx="4.5" transform="rotate(16.9098 15.3975 92.7145)" fill="#E9E9E9"/>
<rect x="9.5802" y="111.85" width="81" height="9" rx="4.5" transform="rotate(16.9098 9.5802 111.85)" fill="#E9E9E9"/>
<rect x="3.76288" y="130.985" width="25" height="9" rx="4.5" transform="rotate(16.9098 3.76288 130.985)" fill="#E9E9E9"/>
<rect x="-2.05444" y="150.12" width="62" height="9" rx="4.5" transform="rotate(16.9098 -2.05444 150.12)" fill="#E9E9E9"/>
<rect x="-7.8717" y="169.256" width="51" height="9" rx="4.5" transform="rotate(16.9098 -7.8717 169.256)" fill="#E9E9E9"/>
<rect x="-13.689" y="188.391" width="73" height="9" rx="4.5" transform="rotate(16.9098 -13.689 188.391)" fill="#E9E9E9"/>
<rect x="-19.5063" y="207.526" width="62" height="9" rx="4.5" transform="rotate(16.9098 -19.5063 207.526)" fill="#E9E9E9"/>
<rect width="81" height="9" rx="4.5" transform="matrix(0.956764 0.290866 0.290866 -0.956764 77.4561 225.507)" fill="#E9E9E9"/>
<rect width="25" height="9" rx="4.5" transform="matrix(0.956764 0.290866 0.290866 -0.956764 83.2734 206.371)" fill="#E9E9E9"/>
<rect width="62" height="9" rx="4.5" transform="matrix(0.956764 0.290866 0.290866 -0.956764 89.0907 187.236)" fill="#E9E9E9"/>
<rect width="51" height="9" rx="4.5" transform="matrix(0.956764 0.290866 0.290866 -0.956764 94.908 168.101)" fill="#E9E9E9"/>
<rect width="73" height="9" rx="4.5" transform="matrix(0.956764 0.290866 0.290866 -0.956764 100.725 148.965)" fill="#E9E9E9"/>
<rect width="62" height="9" rx="4.5" transform="matrix(0.956764 0.290866 0.290866 -0.956764 106.543 129.83)" fill="#E9E9E9"/>
<rect width="51" height="9" rx="4.5" transform="matrix(0.956764 0.290866 0.290866 -0.956764 112.36 110.695)" fill="#A1A1A1"/>
<rect x="208.741" y="130.589" width="67" height="9" rx="4.5" transform="rotate(16.9098 208.741 130.589)" fill="#A1A1A1"/>
<rect x="202.923" y="149.724" width="67" height="9" rx="4.5" transform="rotate(16.9098 202.923 149.724)" fill="#E9E9E9"/>
<rect x="197.106" y="168.859" width="74" height="9" rx="4.5" transform="rotate(16.9098 197.106 168.859)" fill="#E9E9E9"/>
<rect x="191.289" y="187.995" width="23" height="9" rx="4.5" transform="rotate(16.9098 191.289 187.995)" fill="#E9E9E9"/>
<rect x="185.471" y="207.13" width="57" height="9" rx="4.5" transform="rotate(16.9098 185.471 207.13)" fill="#E9E9E9"/>
<rect width="39" height="9" rx="4.5" transform="matrix(0.956764 0.290866 0.290866 -0.956764 282.434 225.11)" fill="#E9E9E9"/>
<rect width="57" height="9" rx="4.5" transform="matrix(0.956764 0.290866 0.290866 -0.956764 288.251 205.975)" fill="#E9E9E9"/>
<rect width="49" height="9" rx="4.5" transform="matrix(0.956764 0.290866 0.290866 -0.956764 294.068 186.84)" fill="#E9E9E9"/>
<rect width="39" height="9" rx="4.5" transform="matrix(0.956764 0.290866 0.290866 -0.956764 299.886 167.705)" fill="#A1A1A1"/>
<rect width="63" height="9" rx="4.5" transform="matrix(0.956764 0.290866 0.290866 -0.956764 387.831 215.345)" fill="#E9E9E9"/>
<rect width="50" height="9" rx="4.5" transform="matrix(0.956764 0.290866 0.290866 -0.956764 393.649 196.209)" fill="#E9E9E9"/>
</g>
<rect x="16.7417" y="0.623815" width="423" height="217" rx="23.5" transform="rotate(16.9098 16.7417 0.623815)" stroke="url(#paint0_linear_164_76)" stroke-opacity="0.2"/>
</g>
<defs>
<filter id="filter0_d_164_76" x="-48.5" y="-1" width="473.077" height="335.902" filterUnits="userSpaceOnUse" color-interpolation-filters="sRGB">
<feFlood flood-opacity="0" result="BackgroundImageFix"/>
<feColorMatrix in="SourceAlpha" type="matrix" values="0 0 0 0 0 0 0 0 0 0 0 0 0 0 0 0 0 0 127 0" result="hardAlpha"/>
<feOffset dx="0.5" dy="1"/>
<feGaussianBlur stdDeviation="1"/>
<feComposite in2="hardAlpha" operator="out"/>
<feColorMatrix type="matrix" values="0 0 0 0 0 0 0 0 0 0 0 0 0 0 0 0 0 0 0.15 0"/>
<feBlend mode="normal" in2="BackgroundImageFix" result="effect1_dropShadow_164_76"/>
<feBlend mode="normal" in="SourceGraphic" in2="effect1_dropShadow_164_76" result="shape"/>
</filter>
<linearGradient id="paint0_linear_164_76" x1="17.9923" y1="8.88003" x2="105.671" y2="305.031" gradientUnits="userSpaceOnUse">
<stop stop-color="#1C1C1C" stop-opacity="0.45"/>
<stop offset="1" stop-color="#828282"/>
</linearGradient>
<clipPath id="clip0_164_76">
<rect x="16.4088" width="424" height="218" rx="24" transform="rotate(16.9098 16.4088 0)" fill="white"/>
</clipPath>
</defs>
</svg>
