<svg width="293" height="309" viewBox="0 0 293 309" fill="none" xmlns="http://www.w3.org/2000/svg">
<g filter="url(#filter0_d_164_69)">
<g clip-path="url(#clip0_164_69)">
<rect x="95.0424" width="214" height="245" rx="24" transform="rotate(22.8256 95.0424 0)" fill="white"/>
<path d="M99.1551 53.0145L104.588 40.1073L107.684 41.4104L102.251 54.3177L99.1551 53.0145ZM113.895 47.8497C115.113 48.3624 115.871 49.1226 116.167 50.1303C116.463 51.138 116.34 52.2869 115.797 53.577L113.494 59.0495L110.551 57.8107L112.608 52.9232C113.181 51.5611 112.907 50.6439 111.784 50.1716C111.22 49.9342 110.688 49.9573 110.187 50.241C109.689 50.5187 109.287 51.0205 108.981 51.7466L107.049 56.3371L104.097 55.0945L108.052 45.6976L111.004 46.9401L110.595 47.9122C111.655 47.3907 112.755 47.3699 113.895 47.8497ZM125.316 52.9638L128.538 54.32L120.794 62.122L117.473 60.7241L117.629 49.7285L120.87 51.0923L120.542 58.0639L125.316 52.9638ZM133.605 66.1473C132.252 66.6939 130.843 66.659 129.379 66.0428C127.921 65.429 126.914 64.4474 126.359 63.0977C125.804 61.748 125.824 60.3681 126.417 58.958C127.013 57.5419 127.986 56.5635 129.337 56.023C130.69 55.4765 132.096 55.5101 133.554 56.1238C135.018 56.74 136.028 57.723 136.583 59.0726C137.14 60.4163 137.121 61.7962 136.525 63.2123C135.932 64.6225 134.958 65.6008 133.605 66.1473ZM129.176 62.0689C129.397 62.6702 129.837 63.1097 130.497 63.3875C131.163 63.6678 131.785 63.6753 132.363 63.41C132.947 63.1471 133.38 62.6797 133.663 62.0076C133.948 61.3296 133.98 60.6929 133.757 60.0977C133.543 59.4989 133.103 59.0594 132.436 58.7791C131.776 58.5012 131.154 58.4937 130.571 58.7566C129.995 59.0159 129.565 59.4846 129.279 60.1627C128.997 60.8348 128.962 61.4702 129.176 62.0689ZM143.108 58.5982C142.642 58.7833 142.175 58.7774 141.707 58.5804C141.245 58.3859 140.914 58.0559 140.714 57.5905C140.523 57.1215 140.526 56.653 140.723 56.185C140.915 55.729 141.243 55.4114 141.707 55.2322C142.177 55.0556 142.643 55.0646 143.105 55.2591C143.573 55.456 143.903 55.786 144.097 56.249C144.299 56.7084 144.306 57.1632 144.116 57.6132C143.919 58.0813 143.583 58.4096 143.108 58.5982ZM135.79 68.4337L139.745 59.0368L142.688 60.2756L138.733 69.6725L135.79 68.4337ZM144.978 72.6083C143.526 71.9971 142.523 71.0167 141.968 69.667C141.413 68.3174 141.432 66.9375 142.025 65.5273C142.621 64.1112 143.592 63.1316 144.936 62.5885C146.283 62.0395 147.674 62.0668 149.108 62.6704C150.362 63.1982 151.272 63.966 151.837 64.9736C152.41 65.9778 152.623 66.9326 152.475 67.838L149.422 67.4642C149.492 67.0628 149.403 66.6513 149.157 66.2298C148.911 65.8082 148.535 65.4914 148.031 65.2792C147.395 65.0115 146.783 65.0223 146.195 65.3117C145.616 65.5976 145.189 66.0675 144.913 66.7216C144.64 67.3697 144.601 68.0098 144.794 68.642C144.993 69.2767 145.41 69.728 146.046 69.9957C146.55 70.2078 147.035 70.2564 147.5 70.1414C147.971 70.0289 148.328 69.8116 148.569 69.4894L150.971 71.4114C150.427 72.1501 149.602 72.665 148.498 72.956C147.394 73.247 146.221 73.1311 144.978 72.6083ZM155.447 77.0143C153.911 76.3678 152.858 75.3877 152.287 74.074C151.72 72.7543 151.744 71.3624 152.36 69.8983C152.966 68.4582 153.925 67.4633 155.237 66.9136C156.552 66.3579 157.95 66.392 159.433 67.0158C160.945 67.6522 161.947 68.6181 162.441 69.9135C162.942 71.2053 162.898 72.5534 162.307 73.9575C162.153 74.3235 161.992 74.6375 161.825 74.8993L154.877 71.9747C154.644 73.1482 155.197 74.0166 156.535 74.5798C157.435 74.9586 158.196 74.9045 158.818 74.4175L161.147 76.3091C160.568 76.8634 159.756 77.2389 158.713 77.4354C157.676 77.6345 156.587 77.4942 155.447 77.0143ZM155.623 70.2015L159.772 71.9479C159.911 71.4837 159.857 71.016 159.611 70.5448C159.37 70.0762 158.959 69.7194 158.377 69.4744C157.801 69.232 157.26 69.1915 156.754 69.3529C156.254 69.5169 155.877 69.7998 155.623 70.2015Z" fill="#B7B7B7"/>
<path d="M153.126 256.752C152.663 256.557 152.307 256.273 152.057 255.899C151.808 255.523 151.702 255.155 151.738 254.794L152.92 254.927C152.916 255.118 152.968 255.295 153.077 255.46C153.188 255.625 153.349 255.752 153.561 255.841C153.702 255.901 153.827 255.922 153.936 255.906C154.046 255.887 154.116 255.841 154.147 255.766C154.199 255.644 154.122 255.498 153.916 255.33L153.128 254.684C152.575 254.226 152.405 253.743 152.618 253.237C152.757 252.908 153.026 252.696 153.428 252.603C153.829 252.509 154.243 252.552 154.67 252.731C155.073 252.901 155.391 253.137 155.623 253.438C155.856 253.736 155.972 254.059 155.97 254.406L154.813 254.266C154.744 253.96 154.567 253.748 154.284 253.628C154.176 253.583 154.073 253.566 153.975 253.579C153.877 253.589 153.814 253.627 153.786 253.694C153.745 253.793 153.785 253.897 153.908 254.008L154.674 254.615C154.827 254.736 154.95 254.845 155.044 254.944C155.138 255.043 155.225 255.159 155.305 255.291C155.388 255.422 155.43 255.564 155.431 255.717C155.435 255.869 155.401 256.031 155.328 256.204C155.174 256.569 154.892 256.803 154.481 256.907C154.07 257.011 153.618 256.959 153.126 256.752ZM158.269 253.627C158.082 253.701 157.895 253.699 157.708 253.62C157.523 253.542 157.391 253.41 157.311 253.224C157.235 253.037 157.236 252.849 157.315 252.662C157.391 252.48 157.523 252.352 157.708 252.281C157.896 252.21 158.082 252.214 158.267 252.292C158.454 252.37 158.587 252.502 158.664 252.687C158.745 252.871 158.748 253.053 158.672 253.233C158.593 253.42 158.459 253.552 158.269 253.627ZM155.341 257.561L156.923 253.803L158.101 254.298L156.519 258.057L155.341 257.561ZM161.503 255.73L162.684 256.227L161.161 259.846C160.938 260.376 160.577 260.731 160.077 260.911C159.579 261.094 159.03 261.059 158.43 260.807C157.576 260.447 157.106 259.864 157.022 259.057L158.195 259.119C158.253 259.451 158.475 259.698 158.862 259.861C159.112 259.966 159.333 259.969 159.528 259.87C159.723 259.774 159.873 259.603 159.977 259.356L160.129 258.996C159.727 259.18 159.317 259.184 158.899 259.008C158.368 258.785 158.006 258.417 157.812 257.906C157.62 257.393 157.639 256.866 157.867 256.323C158.108 255.752 158.473 255.363 158.964 255.157C159.457 254.952 159.971 254.963 160.507 255.188C160.924 255.364 161.208 255.66 161.358 256.076L161.503 255.73ZM159.013 257.539C159.111 257.763 159.289 257.93 159.548 258.039C159.81 258.149 160.051 258.159 160.273 258.069C160.498 257.977 160.664 257.804 160.771 257.55C160.879 257.293 160.887 257.053 160.794 256.83C160.705 256.606 160.53 256.439 160.268 256.329C160.009 256.22 159.764 256.21 159.534 256.3C159.308 256.388 159.14 256.561 159.032 256.818C158.925 257.072 158.919 257.313 159.013 257.539ZM165.756 257.397C166.243 257.602 166.546 257.906 166.665 258.31C166.783 258.713 166.734 259.172 166.517 259.688L165.596 261.877L164.418 261.382L165.241 259.427C165.47 258.882 165.361 258.515 164.912 258.326C164.686 258.231 164.473 258.24 164.273 258.354C164.074 258.465 163.913 258.666 163.791 258.956L163.018 260.792L161.837 260.295L163.419 256.536L164.6 257.033L164.436 257.422C164.86 257.214 165.3 257.205 165.756 257.397ZM171.841 259.958C172.328 260.163 172.631 260.468 172.75 260.871C172.868 261.274 172.819 261.733 172.602 262.249L171.68 264.438L170.503 263.943L171.326 261.988C171.555 261.443 171.445 261.076 170.997 260.887C170.771 260.792 170.558 260.801 170.358 260.915C170.158 261.026 169.998 261.227 169.875 261.517L169.103 263.353L167.922 262.856L170.187 257.474L171.368 257.971L170.521 259.983C170.945 259.775 171.385 259.766 171.841 259.958ZM174.182 265.614C173.568 265.355 173.146 264.963 172.918 264.438C172.691 263.91 172.701 263.353 172.947 262.768C173.19 262.192 173.573 261.794 174.098 261.574C174.624 261.352 175.183 261.365 175.776 261.615C176.381 261.869 176.782 262.256 176.98 262.774C177.18 263.291 177.162 263.83 176.926 264.391C176.864 264.538 176.8 264.663 176.733 264.768L173.954 263.598C173.861 264.068 174.082 264.415 174.617 264.64C174.977 264.792 175.282 264.77 175.53 264.575L176.462 265.332C176.23 265.554 175.906 265.704 175.489 265.783C175.074 265.862 174.638 265.806 174.182 265.614ZM174.253 262.889L175.912 263.588C175.968 263.402 175.946 263.215 175.848 263.026C175.751 262.839 175.587 262.696 175.354 262.598C175.124 262.501 174.907 262.485 174.705 262.55C174.505 262.615 174.354 262.728 174.253 262.889ZM179.184 263.769C179.384 263.61 179.606 263.523 179.85 263.507C180.094 263.491 180.343 263.557 180.598 263.703L180.133 264.809C179.759 264.569 179.437 264.5 179.168 264.602C178.902 264.705 178.671 264.988 178.476 265.451L177.816 267.021L176.635 266.524L178.217 262.765L179.398 263.262L179.184 263.769ZM181.052 268.506C180.437 268.247 180.016 267.855 179.788 267.329C179.561 266.802 179.571 266.245 179.817 265.659C180.06 265.083 180.443 264.685 180.968 264.465C181.494 264.243 182.053 264.257 182.646 264.506C183.251 264.761 183.652 265.147 183.849 265.665C184.05 266.182 184.032 266.721 183.796 267.283C183.734 267.429 183.67 267.555 183.603 267.659L180.824 266.49C180.731 266.959 180.952 267.306 181.487 267.532C181.847 267.683 182.152 267.662 182.4 267.467L183.332 268.223C183.1 268.445 182.776 268.595 182.358 268.674C181.943 268.754 181.508 268.697 181.052 268.506ZM181.122 265.78L182.782 266.479C182.838 266.293 182.816 266.106 182.717 265.918C182.621 265.73 182.457 265.588 182.224 265.49C181.993 265.393 181.777 265.376 181.575 265.441C181.375 265.507 181.224 265.62 181.122 265.78Z" fill="#B7B7B7"/>
<rect x="87.9618" y="76.5125" width="160" height="17" rx="8.5" transform="rotate(22.8256 87.9618 76.5125)" fill="#D9D9D9"/>
<rect x="75.9358" y="105.085" width="107" height="17" rx="8.5" transform="rotate(22.8256 75.9358 105.085)" fill="#D9D9D9"/>
<g clip-path="url(#clip1_164_69)">
<path fill-rule="evenodd" clip-rule="evenodd" d="M184.973 221.513C184.086 218.24 181.785 216.165 179.269 215.716C176.712 215.259 174.112 216.522 172.849 219.523C170.903 224.146 172.314 228.497 174.577 232.171C172.413 232.935 170.528 234.091 169.142 235.399C168.996 235.537 168.854 235.677 168.718 235.82L159.929 232.121C159.496 231.939 158.996 232.143 158.814 232.576C158.631 233.01 158.834 233.51 159.267 233.692L167.614 237.205C167.248 237.771 166.971 238.356 166.807 238.947C166.449 240.231 166.628 241.548 167.557 242.633C168.547 243.789 169.778 244.241 171.06 244.193C172.297 244.147 173.536 243.642 174.648 242.989C175.52 242.477 176.358 241.848 177.113 241.203L194.566 248.549C194.999 248.731 195.499 248.528 195.681 248.094C195.864 247.66 195.661 247.16 195.228 246.978L178.487 239.932C179.043 239.377 179.506 238.863 179.842 238.462C180.68 237.459 182.02 235.43 183.164 232.957C183.356 232.975 183.541 232.996 183.718 233.019C184.917 233.177 185.718 233.447 186.193 233.744C186.65 234.028 186.713 234.267 186.711 234.417C186.709 234.63 186.571 235.025 186.014 235.579C185.297 236.291 184.786 237.004 184.692 237.705C184.639 238.097 184.716 238.492 184.961 238.826C185.193 239.143 185.517 239.326 185.822 239.433C186.415 239.64 187.16 239.635 187.889 239.529C188.642 239.419 189.476 239.187 190.298 238.851C191.038 238.549 191.773 238.298 192.432 238.137C193.105 237.972 193.641 237.917 194.007 237.957C194.185 237.976 194.283 238.014 194.328 238.041C194.359 238.058 194.363 238.067 194.365 238.073C194.385 238.118 194.453 238.396 194.147 239.123C193.58 240.47 193.494 241.679 194.298 242.474C194.663 242.834 195.123 243.005 195.539 243.086C195.958 243.168 196.396 243.171 196.792 243.145C197.261 243.114 197.617 242.708 197.586 242.239C197.556 241.769 197.151 241.413 196.682 241.444C196.366 241.465 196.088 241.456 195.866 241.413C195.642 241.369 195.538 241.303 195.495 241.26C195.48 241.246 195.211 240.982 195.716 239.783C196.071 238.939 196.233 238.1 195.927 237.394C195.59 236.616 194.847 236.334 194.194 236.262C193.54 236.191 192.78 236.298 192.03 236.481C191.267 236.667 190.45 236.949 189.657 237.273C188.946 237.563 188.246 237.755 187.646 237.842C187.509 237.862 187.382 237.876 187.265 237.884C186.801 237.919 186.587 237.473 186.895 237.123C186.985 237.021 187.09 236.91 187.212 236.788C187.906 236.099 188.403 235.299 188.414 234.435C188.425 233.507 187.878 232.785 187.094 232.296C186.327 231.819 185.256 231.502 183.942 231.329C183.916 231.326 183.89 231.322 183.864 231.319C185.047 228.293 185.837 224.699 184.973 221.513ZM176.781 239.214C177.514 238.525 178.126 237.86 178.537 237.369C179.204 236.571 180.307 234.928 181.318 232.874C180.656 232.872 179.936 232.895 179.154 232.947C178.531 232.988 177.918 233.069 177.321 233.185C177.452 233.364 177.585 233.542 177.72 233.719C178.006 234.092 177.935 234.627 177.561 234.913C177.187 235.2 176.653 235.129 176.368 234.755C176.091 234.393 175.817 234.021 175.549 233.641C173.494 234.303 171.706 235.355 170.419 236.536L176.781 239.214ZM169.214 237.879C168.838 238.405 168.581 238.922 168.447 239.403C168.218 240.226 168.345 240.932 168.85 241.523C169.485 242.265 170.208 242.519 170.999 242.49C171.837 242.459 172.792 242.103 173.788 241.519C174.319 241.207 174.84 240.843 175.337 240.456L169.214 237.879ZM179.044 231.246C180.158 231.173 181.171 231.153 182.084 231.183C182.119 231.098 182.154 231.013 182.189 230.926C183.377 227.969 184.071 224.694 183.33 221.961C182.59 219.231 180.747 217.712 178.969 217.394C177.232 217.084 175.387 217.881 174.418 220.184C172.714 224.231 174.001 228.133 176.274 231.669C177.168 231.455 178.096 231.309 179.044 231.246Z" fill="#B7B7B7"/>
<path d="M168.617 225.644C168.795 226.079 168.585 226.577 168.15 226.755L165.872 227.686L166.799 229.965C166.976 230.401 166.766 230.898 166.331 231.076C165.895 231.254 165.399 231.045 165.222 230.609L164.295 228.33L162.017 229.26C161.581 229.438 161.084 229.229 160.907 228.793C160.73 228.358 160.939 227.86 161.375 227.682L163.653 226.752L162.726 224.472C162.549 224.036 162.758 223.539 163.194 223.361C163.629 223.183 164.126 223.392 164.303 223.828L165.23 226.107L167.508 225.177C167.943 224.999 168.44 225.208 168.617 225.644Z" fill="#B7B7B7"/>
</g>
</g>
<rect x="95.3092" y="0.654809" width="213" height="244" rx="23.5" transform="rotate(22.8256 95.3092 0.654809)" stroke="url(#paint0_linear_164_69)" stroke-opacity="0.2"/>
</g>
<defs>
<filter id="filter0_d_164_69" x="-1.5" y="-1" width="296.284" height="312.831" filterUnits="userSpaceOnUse" color-interpolation-filters="sRGB">
<feFlood flood-opacity="0" result="BackgroundImageFix"/>
<feColorMatrix in="SourceAlpha" type="matrix" values="0 0 0 0 0 0 0 0 0 0 0 0 0 0 0 0 0 0 127 0" result="hardAlpha"/>
<feOffset dx="0.5" dy="1"/>
<feGaussianBlur stdDeviation="1"/>
<feComposite in2="hardAlpha" operator="out"/>
<feColorMatrix type="matrix" values="0 0 0 0 0 0 0 0 0 0 0 0 0 0 0 0 0 0 0.15 0"/>
<feBlend mode="normal" in2="BackgroundImageFix" result="effect1_dropShadow_164_69"/>
<feBlend mode="normal" in="SourceGraphic" in2="effect1_dropShadow_164_69" result="shape"/>
</filter>
<linearGradient id="paint0_linear_164_69" x1="95.8416" y1="9.97985" x2="262.192" y2="262.318" gradientUnits="userSpaceOnUse">
<stop stop-color="#1C1C1C" stop-opacity="0.45"/>
<stop offset="1" stop-color="#828282"/>
</linearGradient>
<clipPath id="clip0_164_69">
<rect x="95.0424" width="214" height="245" rx="24" transform="rotate(22.8256 95.0424 0)" fill="white"/>
</clipPath>
<clipPath id="clip1_164_69">
<rect width="48" height="48" fill="white" transform="translate(167.395 201.877) rotate(22.8256)"/>
</clipPath>
</defs>
</svg>
