<svg width="302" height="316" viewBox="0 0 302 316" fill="none" xmlns="http://www.w3.org/2000/svg">
<g filter="url(#filter0_d_164_56)">
<g clip-path="url(#clip0_164_56)">
<rect y="96.4904" width="214" height="245" rx="24" transform="rotate(-26.8008 0 96.4904)" fill="white"/>
<path d="M50.7841 123.793L46.0517 121.03L43.9074 122.113L45.9813 126.219L43.0525 127.698L36.7383 115.199L42.9881 112.042C44.3072 111.375 45.5893 111.264 46.8344 111.707C48.0823 112.141 48.9866 112.914 49.5473 114.024C49.9612 114.843 50.1191 115.711 50.021 116.629C49.9228 117.547 49.5535 118.375 48.9131 119.114L54.1923 122.071L50.7841 123.793ZM41.0057 116.369L42.5996 119.524L45.7027 117.957C46.2141 117.699 46.5576 117.332 46.7333 116.856C46.9147 116.378 46.8939 115.918 46.6708 115.477C46.4536 115.047 46.1045 114.76 45.6235 114.616C45.1483 114.47 44.6841 114.511 44.2308 114.74L41.0057 116.369ZM59.6162 107.034L53.2792 110.235L54.5298 112.71L59.9515 109.971L61.2857 112.613L55.8639 115.351L58.2285 120.032L55.2648 121.529L48.9506 109.03L58.2512 104.331L59.6162 107.034ZM78.0242 110.032L75.1303 111.494L74.3166 111.161C73.5873 112.23 72.6633 113.05 71.5447 113.623C69.7375 114.536 67.882 114.689 65.9782 114.082C64.0745 113.476 62.6603 112.257 61.7356 110.427C60.808 108.591 60.6649 106.726 61.3064 104.834C61.9479 102.942 63.1723 101.539 64.9795 100.626C66.7868 99.7133 68.6423 99.5601 70.546 100.167C72.4556 100.77 73.8727 101.987 74.7974 103.818C75.6017 105.41 75.7891 107.088 75.3596 108.851L78.0242 110.032ZM70.1709 110.903C70.659 110.657 71.0713 110.361 71.4076 110.016L67.0724 108.278L70.376 106.609L72.4456 107.544C72.4599 106.778 72.2792 106.023 71.9035 105.28C71.3369 104.158 70.5405 103.419 69.5141 103.062C68.4907 102.696 67.4356 102.788 66.3489 103.337C65.2681 103.883 64.5682 104.678 64.2493 105.722C63.9304 106.765 64.0542 107.848 64.6208 108.969C65.1844 110.085 65.9808 110.824 67.0101 111.187C68.0365 111.544 69.0901 111.449 70.1709 110.903ZM88.63 104.992C87.1539 105.738 85.7196 106.003 84.327 105.787C82.9344 105.572 81.7719 105.032 80.8396 104.168L83.2234 101.87C83.7845 102.36 84.4408 102.655 85.1924 102.757C85.944 102.859 86.712 102.711 87.4965 102.315C88.0776 102.022 88.4896 101.668 88.7325 101.253C88.9754 100.839 89.0161 100.472 88.8546 100.152C88.5963 99.6407 87.9463 99.4657 86.9046 99.6273L83.1862 100.258C82.1766 100.426 81.2664 100.357 80.4558 100.051C79.648 99.7372 79.0517 99.185 78.6671 98.3946C78.1329 97.3661 78.1211 96.267 78.6317 95.0974C79.148 93.9248 80.0716 93.0024 81.4023 92.3302C82.7214 91.6638 84.0451 91.3964 85.3733 91.5277C86.7044 91.6504 87.7733 92.0842 88.5799 92.8291L86.2567 95.0093C85.7837 94.6938 85.2298 94.5214 84.595 94.492C83.9602 94.4626 83.3435 94.5991 82.7449 94.9014C82.2452 95.1539 81.8941 95.4552 81.6917 95.8054C81.4864 96.1498 81.4586 96.4702 81.6083 96.7666C81.8256 97.1966 82.2557 97.355 82.8987 97.2417L86.5517 96.6545C87.8174 96.4455 88.8772 96.4499 89.7312 96.6677C90.591 96.8825 91.2646 97.4722 91.7519 98.4369C92.3243 99.57 92.3277 100.754 91.7621 101.987C91.1965 103.221 90.1525 104.223 88.63 104.992ZM94.8744 101.52L88.2916 88.489L91.1507 87.0447L97.7335 100.076L94.8744 101.52ZM96.7159 87.2531C96.5548 87.7284 96.2476 88.0805 95.7944 88.3095C95.3469 88.5355 94.8812 88.5738 94.3973 88.4244C93.9162 88.2662 93.5612 87.9605 93.3322 87.5073C93.1091 87.0656 93.0796 86.6101 93.2436 86.1406C93.4135 85.6683 93.7221 85.3191 94.1696 85.093C94.6228 84.8641 95.0885 84.8257 95.5667 84.9781C96.0477 85.1217 96.3982 85.4114 96.6184 85.8472C96.8474 86.3005 96.8799 86.7691 96.7159 87.2531ZM99.4684 99.1996L94.8715 90.0995L97.7218 88.6596L102.319 97.7598L99.4684 99.1996ZM104.89 84.7212C106.128 84.0959 107.406 84.0266 108.724 84.5133C110.045 84.9911 111.052 85.9158 111.744 87.2872C112.434 88.6528 112.581 90.0119 112.185 91.3645C111.794 92.7142 110.98 93.7016 109.743 94.3269C108.685 94.8611 107.627 94.9397 106.569 94.5627L108.885 99.1476L106.026 100.592L99.5352 87.7436L102.394 86.2993L102.817 87.1361C103.118 86.0722 103.809 85.2672 104.89 84.7212ZM107.938 92.0546C108.554 91.7434 108.956 91.2744 109.142 90.6477C109.329 90.0209 109.252 89.3705 108.911 88.6964C108.574 88.0281 108.1 87.589 107.491 87.379C106.885 87.1602 106.27 87.2078 105.649 87.5219C105.015 87.8419 104.598 88.3153 104.397 88.9421C104.198 89.5602 104.268 90.2033 104.605 90.8716C104.949 91.5515 105.431 92.0008 106.052 92.2195C106.676 92.4295 107.305 92.3745 107.938 92.0546Z" fill="#B7B7B7"/>
<path d="M57.2598 151.694C56.448 152.104 55.6592 152.25 54.8932 152.131C54.1273 152.013 53.4879 151.716 52.9751 151.241L54.2863 149.977C54.5948 150.246 54.9558 150.409 55.3692 150.465C55.7826 150.521 56.205 150.44 56.6365 150.222C56.9561 150.06 57.1827 149.866 57.3162 149.638C57.4498 149.41 57.4722 149.208 57.3834 149.032C57.2413 148.751 56.8838 148.655 56.3109 148.743L54.2658 149.09C53.7105 149.182 53.2099 149.144 52.764 148.977C52.3198 148.804 51.9918 148.5 51.7803 148.065C51.4865 147.5 51.48 146.895 51.7608 146.252C52.0448 145.607 52.5527 145.1 53.2846 144.73C54.0101 144.364 54.7382 144.216 55.4687 144.289C56.2008 144.356 56.7887 144.595 57.2323 145.004L55.9546 146.203C55.6944 146.03 55.3898 145.935 55.0406 145.919C54.6915 145.903 54.3523 145.978 54.0231 146.144C53.7482 146.283 53.5551 146.449 53.4438 146.641C53.3309 146.831 53.3156 147.007 53.398 147.17C53.5174 147.407 53.754 147.494 54.1076 147.431L56.1168 147.108C56.8129 146.993 57.3959 146.996 57.8655 147.116C58.3384 147.234 58.7089 147.558 58.9769 148.089C59.2917 148.712 59.2936 149.363 58.9825 150.042C58.6714 150.72 58.0972 151.271 57.2598 151.694ZM61.4548 143.118L63.0272 142.324L65.5556 147.329L63.9831 148.123L63.7191 147.601C63.56 148.231 63.1776 148.701 62.5719 149.011C61.9231 149.338 61.3348 149.385 60.807 149.15C60.2792 148.915 59.8417 148.454 59.4946 147.767L58.0222 144.852L59.5898 144.06L60.9024 146.659C61.2689 147.384 61.7518 147.598 62.3511 147.299C62.6515 147.147 62.8315 146.916 62.8911 146.605C62.9507 146.294 62.8828 145.945 62.6874 145.558L61.4548 143.118ZM66.9555 140.165C67.6363 139.821 68.3391 139.783 69.064 140.051C69.7905 140.313 70.3443 140.822 70.7253 141.576C71.1047 142.327 71.1855 143.075 70.9675 143.819C70.7528 144.561 70.3051 145.104 69.6243 145.448C69.0426 145.742 68.4607 145.785 67.8785 145.578L69.1524 148.099L67.5799 148.894L64.0102 141.827L65.5827 141.033L65.8152 141.493C65.9809 140.908 66.361 140.465 66.9555 140.165ZM68.6319 144.198C68.9707 144.027 69.1914 143.769 69.2941 143.424C69.3968 143.08 69.3545 142.722 69.1672 142.351C68.9815 141.984 68.7211 141.742 68.3859 141.627C68.0524 141.506 67.7146 141.533 67.3726 141.705C67.0242 141.881 66.7947 142.142 66.684 142.486C66.5749 142.826 66.6132 143.18 66.7989 143.548C66.9878 143.922 67.253 144.169 67.5946 144.289C67.9378 144.405 68.2835 144.374 68.6319 144.198ZM73.0874 137.067C73.7682 136.723 74.471 136.685 75.1959 136.953C75.9224 137.216 76.4762 137.724 76.8572 138.479C77.2366 139.23 77.3174 139.977 77.0994 140.721C76.8847 141.464 76.4369 142.007 75.7562 142.351C75.1745 142.644 74.5926 142.688 74.0104 142.48L75.2843 145.002L73.7118 145.796L70.1421 138.73L71.7146 137.935L71.9471 138.396C72.1128 137.81 72.4929 137.368 73.0874 137.067ZM74.7638 141.101C75.1026 140.93 75.3233 140.672 75.426 140.327C75.5286 139.982 75.4863 139.625 75.2991 139.254C75.1134 138.886 74.853 138.645 74.5178 138.529C74.1842 138.409 73.8465 138.435 73.5045 138.608C73.1561 138.784 72.9266 139.044 72.8159 139.389C72.7068 139.729 72.7451 140.083 72.9308 140.45C73.1197 140.824 73.3849 141.071 73.7265 141.191C74.0697 141.307 74.4154 141.277 74.7638 141.101ZM78.8023 140.637L75.1818 133.47L76.7543 132.676L80.3748 139.843L78.8023 140.637ZM79.8151 132.79C79.7265 133.052 79.5576 133.245 79.3083 133.371C79.0622 133.496 78.806 133.517 78.5399 133.434C78.2753 133.348 78.08 133.179 77.9541 132.93C77.8314 132.687 77.8152 132.437 77.9054 132.178C77.9988 131.919 78.1685 131.727 78.4146 131.602C78.6639 131.476 78.9201 131.455 79.183 131.539C79.4476 131.618 79.6404 131.777 79.7615 132.017C79.8874 132.266 79.9053 132.524 79.8151 132.79ZM81.329 139.361L78.8007 134.356L80.3684 133.564L82.8967 138.569L81.329 139.361ZM86.4189 136.964C85.6007 137.378 84.8148 137.47 84.0612 137.241C83.306 137.008 82.7315 136.502 82.3375 135.722C81.95 134.955 81.8749 134.199 82.112 133.453C82.3475 132.705 82.86 132.131 83.6494 131.732C84.4548 131.325 85.2168 131.249 85.9352 131.504C86.6553 131.754 87.2042 132.253 87.582 133.001C87.6805 133.196 87.7549 133.375 87.8052 133.538L84.1041 135.408C84.513 135.923 85.0738 136.001 85.7865 135.641C86.2659 135.399 86.5144 135.061 86.5318 134.627L88.1543 134.324C88.1802 134.765 88.0484 135.238 87.759 135.746C87.4729 136.251 87.0262 136.657 86.4189 136.964ZM83.627 134.463L85.8371 133.347C85.6921 133.123 85.4769 132.979 85.1916 132.915C84.9095 132.849 84.6134 132.894 84.3034 133.05C83.9966 133.205 83.7869 133.418 83.6743 133.687C83.5649 133.955 83.5491 134.214 83.627 134.463ZM88.9417 130.081C88.9531 129.731 89.0591 129.42 89.2598 129.151C89.4605 128.881 89.7511 128.678 90.1316 128.542L90.8751 130.013C90.2913 130.192 89.933 130.467 89.8 130.839C89.6702 131.21 89.7611 131.703 90.0727 132.32L91.1286 134.411L89.5561 135.205L87.0278 130.2L88.6003 129.406L88.9417 130.081ZM92.3728 129.678C92.1107 129.811 91.8458 129.834 91.578 129.749C91.3086 129.66 91.1085 129.486 90.9778 129.227C90.8518 128.978 90.8348 128.722 90.9266 128.459C91.0199 128.191 91.1961 127.992 91.455 127.861C91.7106 127.732 91.9724 127.71 92.2402 127.795C92.5095 127.876 92.7072 128.041 92.8331 128.29C92.9655 128.552 92.985 128.817 92.8916 129.085C92.8014 129.351 92.6285 129.549 92.3728 129.678ZM94.0632 133.024C93.8011 133.157 93.5362 133.18 93.2684 133.095C93.0006 133.01 92.8005 132.836 92.6682 132.574C92.5422 132.324 92.5252 132.068 92.617 131.805C92.712 131.541 92.8889 131.343 93.1478 131.212C93.4035 131.083 93.6644 131.06 93.9305 131.142C94.1999 131.222 94.3976 131.387 94.5235 131.637C94.6559 131.899 94.6754 132.164 94.582 132.431C94.4918 132.698 94.3189 132.895 94.0632 133.024Z" fill="#B7B7B7"/>
<rect x="59.307" y="164.901" width="88.3398" height="9.38611" rx="4.69305" transform="rotate(-26.8008 59.307 164.901)" fill="#D9D9D9"/>
<rect x="67.0244" y="180.178" width="59.0773" height="9.38611" rx="4.69305" transform="rotate(-26.8008 67.0244 180.178)" fill="#D9D9D9"/>
<path d="M87.201 211.483C86.3892 211.893 85.6003 212.039 84.8344 211.92C84.0685 211.802 83.4291 211.505 82.9163 211.03L84.2274 209.766C84.536 210.035 84.897 210.198 85.3103 210.254C85.7237 210.31 86.1462 210.229 86.5776 210.011C86.8972 209.849 87.1238 209.655 87.2574 209.427C87.391 209.199 87.4134 208.997 87.3246 208.821C87.1825 208.54 86.825 208.444 86.2521 208.532L84.207 208.88C83.6517 208.972 83.1511 208.934 82.7052 208.766C82.2609 208.593 81.933 208.289 81.7214 207.854C81.4277 207.289 81.4212 206.684 81.702 206.041C81.9859 205.396 82.4939 204.889 83.2258 204.519C83.9513 204.153 84.6793 204.005 85.4098 204.078C86.1419 204.145 86.7298 204.384 87.1735 204.793L85.8957 205.993C85.6356 205.819 85.3309 205.724 84.9818 205.708C84.6326 205.692 84.2934 205.767 83.9642 205.933C83.6894 206.072 83.4963 206.238 83.385 206.43C83.2721 206.62 83.2568 206.796 83.3391 206.959C83.4586 207.196 83.6952 207.283 84.0488 207.22L86.058 206.897C86.7541 206.782 87.337 206.785 87.8067 206.905C88.2796 207.023 88.65 207.347 88.9181 207.878C89.2329 208.501 89.2348 209.152 88.9237 209.831C88.6126 210.509 88.0384 211.06 87.201 211.483ZM91.0908 202.887C91.7396 202.559 92.3279 202.513 92.8557 202.747C93.3835 202.982 93.821 203.443 94.1681 204.13L95.6406 207.045L94.0729 207.837L92.7579 205.234C92.3914 204.508 91.9093 204.297 91.3116 204.599C91.0112 204.75 90.8312 204.982 90.7716 205.293C90.7104 205.6 90.7775 205.948 90.9729 206.334L92.208 208.779L90.6355 209.574L87.0149 202.406L88.5874 201.612L89.9412 204.292C90.1003 203.662 90.4835 203.194 91.0908 202.887ZM95.0329 200.017C94.9443 200.278 94.7754 200.472 94.5261 200.598C94.28 200.722 94.0239 200.743 93.7577 200.661C93.4931 200.574 93.2979 200.406 93.1719 200.157C93.0492 199.914 93.033 199.663 93.1232 199.405C93.2166 199.145 93.3864 198.953 93.6325 198.829C93.8818 198.703 94.1379 198.682 94.4009 198.766C94.6654 198.845 94.8582 199.004 94.9793 199.244C95.1052 199.493 95.1231 199.751 95.0329 200.017ZM96.5468 206.587L94.0185 201.582L95.5862 200.79L98.1145 205.796L96.5468 206.587ZM99.5288 198.624C100.21 198.28 100.912 198.242 101.637 198.51C102.364 198.773 102.918 199.281 103.299 200.036C103.678 200.787 103.759 201.534 103.541 202.278C103.326 203.02 102.878 203.564 102.198 203.907C101.616 204.201 101.034 204.245 100.452 204.037L101.726 206.559L100.153 207.353L96.5836 200.287L98.156 199.492L98.3885 199.953C98.5543 199.367 98.9344 198.925 99.5288 198.624ZM101.205 202.658C101.544 202.487 101.765 202.229 101.867 201.884C101.97 201.539 101.928 201.181 101.741 200.811C101.555 200.443 101.294 200.202 100.959 200.086C100.626 199.966 100.288 199.992 99.9459 200.165C99.5975 200.341 99.368 200.601 99.2573 200.946C99.1482 201.286 99.1865 201.64 99.3722 202.007C99.5611 202.381 99.8263 202.628 100.168 202.748C100.511 202.864 100.857 202.834 101.205 202.658ZM109.499 191.415L110.245 192.892L108.054 193.999L110.781 199.397L109.151 200.22L106.424 194.822L104.238 195.926L103.492 194.45L109.499 191.415ZM116.534 195.715C116.28 196.477 115.764 197.054 114.984 197.448C114.207 197.841 113.438 197.913 112.674 197.664C111.911 197.416 111.34 196.916 110.96 196.165C110.579 195.411 110.516 194.655 110.771 193.896C111.024 193.135 111.539 192.558 112.315 192.165C113.095 191.771 113.867 191.698 114.63 191.947C115.392 192.192 115.963 192.691 116.344 193.446C116.723 194.197 116.787 194.953 116.534 195.715ZM113.247 196.118C113.577 196.239 113.918 196.212 114.27 196.034C114.624 195.855 114.849 195.597 114.944 195.26C115.042 194.922 115 194.574 114.82 194.216C114.637 193.855 114.381 193.615 114.053 193.496C113.726 193.372 113.385 193.4 113.03 193.579C112.678 193.757 112.453 194.015 112.356 194.353C112.259 194.687 112.302 195.034 112.485 195.395C112.666 195.753 112.92 195.994 113.247 196.118ZM117.285 192.008C117.023 192.14 116.758 192.164 116.49 192.078C116.221 191.99 116.02 191.816 115.89 191.557C115.764 191.308 115.747 191.052 115.838 190.789C115.932 190.521 116.108 190.322 116.367 190.191C116.623 190.062 116.884 190.04 117.152 190.125C117.421 190.206 117.619 190.371 117.745 190.62C117.877 190.882 117.897 191.147 117.804 191.415C117.713 191.681 117.54 191.879 117.285 192.008ZM118.975 195.354C118.713 195.486 118.448 195.51 118.18 195.425C117.913 195.339 117.712 195.165 117.58 194.903C117.454 194.654 117.437 194.398 117.529 194.135C117.624 193.87 117.801 193.673 118.06 193.542C118.315 193.413 118.576 193.389 118.842 193.471C119.112 193.552 119.309 193.717 119.435 193.966C119.568 194.228 119.587 194.493 119.494 194.761C119.404 195.027 119.231 195.225 118.975 195.354Z" fill="#B7B7B7"/>
<rect x="88.6148" y="222.918" width="88.3398" height="9.38611" rx="4.69305" transform="rotate(-26.8008 88.6148 222.918)" fill="#D9D9D9"/>
<rect x="96.9049" y="239.329" width="59.0773" height="9.38611" rx="4.69305" transform="rotate(-26.8008 96.9049 239.329)" fill="#D9D9D9"/>
<g clip-path="url(#clip1_164_56)">
<path fill-rule="evenodd" clip-rule="evenodd" d="M235.533 179.264C232.465 177.82 229.394 178.229 227.422 179.855C225.418 181.507 224.695 184.306 226.164 187.212C228.425 191.689 232.654 193.433 236.919 194.088C236.099 196.232 235.758 198.417 235.857 200.32C235.868 200.521 235.883 200.72 235.904 200.916L227.392 205.216C226.972 205.428 226.804 205.94 227.017 206.36C227.229 206.781 227.741 206.949 228.161 206.737L236.243 202.654C236.437 203.3 236.704 203.889 237.048 204.397C237.794 205.502 238.913 206.219 240.342 206.214C241.864 206.208 243.005 205.563 243.8 204.555C244.565 203.584 244.983 202.312 245.206 201.042C245.381 200.046 245.445 199 245.442 198.008L262.344 189.469C262.764 189.257 262.932 188.745 262.72 188.325C262.507 187.905 261.995 187.736 261.576 187.948L245.364 196.137C245.301 195.354 245.21 194.668 245.122 194.153C244.901 192.864 244.222 190.529 243.08 188.056C243.218 187.921 243.354 187.794 243.486 187.674C244.383 186.863 245.108 186.428 245.641 186.258C246.154 186.094 246.377 186.201 246.49 186.299C246.651 186.439 246.862 186.8 246.923 187.584C247.002 188.59 247.214 189.442 247.687 189.968C247.951 190.262 248.302 190.459 248.715 190.489C249.106 190.517 249.457 190.389 249.735 190.226C250.277 189.908 250.756 189.337 251.147 188.713C251.551 188.069 251.915 187.283 252.191 186.438C252.44 185.679 252.725 184.957 253.03 184.35C253.34 183.731 253.645 183.287 253.912 183.034C254.043 182.911 254.135 182.861 254.185 182.843C254.218 182.831 254.227 182.834 254.233 182.836C254.28 182.851 254.536 182.979 254.892 183.683C255.551 184.987 256.416 185.836 257.543 185.738C258.053 185.694 258.482 185.454 258.813 185.19C259.146 184.924 259.433 184.592 259.669 184.273C259.95 183.896 259.871 183.362 259.493 183.081C259.116 182.8 258.583 182.878 258.302 183.255C258.113 183.51 257.926 183.716 257.75 183.856C257.572 183.999 257.454 184.035 257.393 184.04C257.373 184.042 256.997 184.076 256.411 182.915C255.998 182.098 255.464 181.43 254.728 181.206C253.916 180.959 253.22 181.343 252.743 181.794C252.264 182.246 251.854 182.894 251.508 183.584C251.155 184.286 250.841 185.091 250.574 185.905C250.334 186.634 250.027 187.292 249.705 187.806C249.631 187.922 249.559 188.028 249.49 188.123C249.216 188.499 248.737 188.373 248.671 187.912C248.651 187.778 248.634 187.625 248.621 187.453C248.545 186.479 248.258 185.582 247.606 185.014C246.906 184.404 246.002 184.353 245.122 184.634C244.262 184.908 243.326 185.52 242.344 186.408C242.324 186.426 242.305 186.444 242.285 186.462C240.747 183.6 238.52 180.67 235.533 179.264ZM243.712 196.971C243.662 195.967 243.552 195.07 243.443 194.439C243.268 193.413 242.731 191.509 241.821 189.409C241.391 189.911 240.942 190.476 240.475 191.104C240.102 191.606 239.767 192.125 239.469 192.655C239.69 192.671 239.912 192.685 240.134 192.696C240.603 192.721 240.965 193.122 240.941 193.592C240.917 194.062 240.517 194.423 240.047 194.398C239.592 194.375 239.131 194.343 238.668 194.3C237.841 196.295 237.485 198.338 237.551 200.084L243.712 196.971ZM237.793 201.872C237.951 202.5 238.177 203.03 238.457 203.443C238.936 204.151 239.556 204.512 240.333 204.509C241.31 204.506 241.972 204.121 242.462 203.499C242.981 202.84 243.329 201.882 243.529 200.745C243.635 200.139 243.696 199.505 243.723 198.876L237.793 201.872ZM239.108 190.086C239.773 189.19 240.415 188.406 241.029 187.73C240.987 187.648 240.944 187.566 240.901 187.484C239.417 184.662 237.372 182.012 234.811 180.807C232.251 179.602 229.9 180.022 228.506 181.171C227.145 182.293 226.557 184.216 227.683 186.445C229.663 190.365 233.469 191.912 237.636 192.47C238.051 191.651 238.541 190.849 239.108 190.086Z" fill="#B7B7B7"/>
<path d="M228.085 194.401C228.532 194.548 228.776 195.03 228.629 195.477L227.862 197.815L230.199 198.586C230.646 198.733 230.89 199.215 230.743 199.662C230.596 200.109 230.115 200.352 229.669 200.204L227.332 199.434L226.565 201.772C226.418 202.219 225.937 202.462 225.491 202.315C225.044 202.168 224.801 201.686 224.947 201.239L225.714 198.901L223.377 198.13C222.93 197.983 222.687 197.501 222.833 197.054C222.98 196.607 223.461 196.364 223.907 196.511L226.244 197.282L227.011 194.943C227.158 194.496 227.639 194.253 228.085 194.401Z" fill="#B7B7B7"/>
</g>
<path d="M242.197 226.128C241.748 226.354 241.3 226.442 240.854 226.39C240.407 226.336 240.057 226.179 239.806 225.918L240.672 225.103C240.815 225.23 240.984 225.305 241.18 225.328C241.378 225.351 241.579 225.311 241.784 225.207C241.921 225.138 242.019 225.057 242.076 224.963C242.133 224.867 242.143 224.784 242.107 224.711C242.047 224.593 241.886 224.557 241.624 224.605L240.622 224.787C239.915 224.911 239.437 224.728 239.189 224.238C239.028 223.919 239.042 223.577 239.23 223.21C239.419 222.844 239.72 222.556 240.134 222.347C240.524 222.15 240.909 222.06 241.289 222.079C241.668 222.095 241.988 222.216 242.251 222.442L241.395 223.233C241.117 223.087 240.841 223.084 240.567 223.222C240.462 223.275 240.383 223.343 240.328 223.426C240.273 223.507 240.262 223.579 240.294 223.645C240.343 223.74 240.449 223.777 240.613 223.755L241.571 223.564C241.762 223.526 241.925 223.503 242.062 223.496C242.198 223.488 242.342 223.497 242.495 223.522C242.649 223.543 242.784 223.603 242.901 223.702C243.019 223.797 243.12 223.928 243.205 224.096C243.383 224.449 243.379 224.816 243.192 225.196C243.005 225.577 242.673 225.887 242.197 226.128ZM243.147 220.186C243.083 220.376 242.96 220.517 242.778 220.609C242.599 220.699 242.413 220.714 242.22 220.655C242.027 220.591 241.885 220.469 241.794 220.288C241.704 220.111 241.693 219.929 241.758 219.741C241.826 219.552 241.95 219.412 242.129 219.322C242.31 219.23 242.496 219.215 242.687 219.276C242.88 219.333 243.02 219.449 243.108 219.624C243.2 219.805 243.213 219.992 243.147 220.186ZM244.248 224.965L242.409 221.325L243.549 220.749L245.388 224.389L244.248 224.965ZM246.844 219.084L247.988 218.506L249.758 222.011C250.018 222.524 250.054 223.03 249.867 223.526C249.684 224.024 249.302 224.42 248.721 224.714C247.894 225.132 247.145 225.112 246.476 224.653L247.283 223.799C247.574 223.97 247.906 223.961 248.28 223.772C248.522 223.65 248.668 223.483 248.719 223.271C248.773 223.06 248.739 222.835 248.618 222.595L248.442 222.247C248.321 222.672 248.059 222.987 247.654 223.191C247.141 223.451 246.626 223.489 246.111 223.306C245.596 223.119 245.206 222.764 244.941 222.238C244.662 221.685 244.602 221.155 244.763 220.647C244.927 220.139 245.267 219.754 245.786 219.492C246.19 219.288 246.599 219.263 247.013 219.419L246.844 219.084ZM246.609 222.153C246.843 222.224 247.086 222.196 247.337 222.069C247.59 221.941 247.755 221.764 247.829 221.536C247.905 221.305 247.881 221.067 247.756 220.82C247.631 220.572 247.453 220.41 247.223 220.337C246.995 220.26 246.754 220.285 246.5 220.413C246.249 220.54 246.084 220.72 246.003 220.953C245.924 221.183 245.947 221.422 246.072 221.671C246.197 221.917 246.376 222.078 246.609 222.153ZM250.869 216.924C251.341 216.686 251.769 216.652 252.153 216.823C252.537 216.993 252.855 217.329 253.107 217.828L254.178 219.948L253.038 220.524L252.082 218.631C251.815 218.103 251.465 217.949 251.03 218.169C250.811 218.279 250.681 218.448 250.637 218.674C250.593 218.897 250.642 219.15 250.784 219.431L251.682 221.209L250.538 221.787L248.699 218.147L249.843 217.569L250.033 217.946C250.149 217.488 250.428 217.147 250.869 216.924ZM256.762 213.947C257.234 213.709 257.662 213.675 258.046 213.846C258.43 214.017 258.748 214.352 259 214.852L260.071 216.972L258.931 217.548L257.974 215.654C257.708 215.127 257.357 214.973 256.923 215.192C256.704 215.303 256.573 215.471 256.53 215.697C256.485 215.921 256.534 216.173 256.676 216.455L257.575 218.233L256.431 218.81L253.798 213.598L254.941 213.02L255.926 214.969C256.042 214.511 256.32 214.17 256.762 213.947ZM262.587 215.827C261.992 216.128 261.421 216.195 260.873 216.028C260.323 215.859 259.905 215.491 259.619 214.924C259.337 214.366 259.283 213.816 259.455 213.274C259.626 212.729 259.999 212.312 260.573 212.022C261.159 211.726 261.713 211.671 262.236 211.856C262.759 212.038 263.158 212.401 263.433 212.945C263.505 213.087 263.559 213.217 263.595 213.336L260.904 214.695C261.201 215.07 261.609 215.127 262.127 214.865C262.476 214.689 262.657 214.443 262.669 214.127L263.849 213.908C263.868 214.228 263.772 214.572 263.562 214.941C263.354 215.309 263.029 215.604 262.587 215.827ZM260.557 214.008L262.164 213.197C262.059 213.034 261.902 212.929 261.695 212.882C261.49 212.834 261.274 212.867 261.049 212.981C260.826 213.094 260.673 213.248 260.591 213.444C260.512 213.639 260.5 213.827 260.557 214.008ZM264.422 210.822C264.43 210.567 264.507 210.341 264.653 210.145C264.799 209.949 265.011 209.801 265.287 209.702L265.828 210.772C265.404 210.902 265.143 211.102 265.046 211.373C264.952 211.642 265.018 212.001 265.245 212.45L266.012 213.97L264.869 214.548L263.03 210.908L264.174 210.33L264.422 210.822ZM269.24 212.467C268.645 212.767 268.073 212.834 267.525 212.668C266.976 212.499 266.558 212.131 266.272 211.564C265.99 211.006 265.935 210.456 266.108 209.913C266.279 209.369 266.652 208.952 267.226 208.661C267.812 208.366 268.366 208.31 268.888 208.496C269.412 208.678 269.811 209.04 270.086 209.584C270.158 209.726 270.212 209.856 270.248 209.975L267.557 211.335C267.854 211.71 268.262 211.766 268.78 211.504C269.129 211.328 269.309 211.082 269.322 210.767L270.502 210.547C270.521 210.867 270.425 211.212 270.215 211.581C270.007 211.948 269.682 212.244 269.24 212.467ZM267.21 210.648L268.817 209.836C268.711 209.673 268.555 209.569 268.347 209.522C268.142 209.474 267.927 209.506 267.702 209.62C267.478 209.733 267.326 209.887 267.244 210.083C267.164 210.278 267.153 210.466 267.21 210.648Z" fill="#B7B7B7"/>
</g>
<rect x="0.671735" y="96.7112" width="213" height="244" rx="23.5" transform="rotate(-26.8008 0.671735 96.7112)" stroke="url(#paint0_linear_164_56)" stroke-opacity="0.2"/>
</g>
<defs>
<filter id="filter0_d_164_56" x="-1.5" y="-0.999969" width="305.48" height="319.172" filterUnits="userSpaceOnUse" color-interpolation-filters="sRGB">
<feFlood flood-opacity="0" result="BackgroundImageFix"/>
<feColorMatrix in="SourceAlpha" type="matrix" values="0 0 0 0 0 0 0 0 0 0 0 0 0 0 0 0 0 0 127 0" result="hardAlpha"/>
<feOffset dx="0.5" dy="1"/>
<feGaussianBlur stdDeviation="1"/>
<feComposite in2="hardAlpha" operator="out"/>
<feColorMatrix type="matrix" values="0 0 0 0 0 0 0 0 0 0 0 0 0 0 0 0 0 0 0.15 0"/>
<feBlend mode="normal" in2="BackgroundImageFix" result="effect1_dropShadow_164_56"/>
<feBlend mode="normal" in="SourceGraphic" in2="effect1_dropShadow_164_56" result="shape"/>
</filter>
<linearGradient id="paint0_linear_164_56" x1="0.799236" y1="106.47" x2="167.15" y2="358.809" gradientUnits="userSpaceOnUse">
<stop stop-color="#1C1C1C" stop-opacity="0.45"/>
<stop offset="1" stop-color="#828282"/>
</linearGradient>
<clipPath id="clip0_164_56">
<rect y="96.4904" width="214" height="245" rx="24" transform="rotate(-26.8008 0 96.4904)" fill="white"/>
</clipPath>
<clipPath id="clip1_164_56">
<rect width="48" height="48" fill="white" transform="translate(209.187 179.937) rotate(-26.8008)"/>
</clipPath>
</defs>
</svg>
